<svg width="537" height="537" viewBox="0 0 537 537" fill="none" xmlns="http://www.w3.org/2000/svg">
<rect width="537" height="537" rx="268.5" fill="white"/>
<path d="M392.576 536.607H144.396C144.372 507.239 154.772 478.817 173.744 456.4C192.716 433.984 219.028 419.028 247.996 414.197C261.038 412.044 274.337 411.959 287.406 413.947C316.702 418.448 343.418 433.294 362.711 455.796C382.004 478.298 392.599 506.966 392.576 536.607Z" fill="#DCE7F6"/>
<path fill-rule="evenodd" clip-rule="evenodd" d="M347 537H194V490.586C209.782 485.054 228.274 481.323 247.996 479.785C261.038 478.779 274.337 478.74 287.406 479.668C309.411 481.249 329.959 485.557 347 492.06V537Z" fill="#333333"/>
<path d="M267.706 341.267C272.93 341.267 277.941 343.342 281.636 347.037C285.33 350.731 287.406 355.742 287.406 360.967V416.657C287.406 421.882 285.33 426.894 281.636 430.59C277.942 434.286 272.931 436.364 267.706 436.367C262.478 436.367 257.465 434.29 253.769 430.594C250.072 426.897 247.996 421.884 247.996 416.657V361.007C247.99 358.415 248.496 355.849 249.485 353.453C250.473 351.058 251.924 348.881 253.755 347.047C255.586 345.213 257.761 343.759 260.154 342.767C262.548 341.775 265.114 341.265 267.706 341.267Z" fill="#F6AF99"/>
<path d="M268.076 392.667C334.792 392.667 388.876 330.716 388.876 254.297C388.876 177.877 334.792 115.927 268.076 115.927C201.36 115.927 147.276 177.877 147.276 254.297C147.276 330.716 201.36 392.667 268.076 392.667Z" fill="#FFD6C9"/>
<path d="M212.816 297.566C220.15 297.566 226.096 291.621 226.096 284.286C226.096 276.952 220.15 271.006 212.816 271.006C205.481 271.006 199.536 276.952 199.536 284.286C199.536 291.621 205.481 297.566 212.816 297.566Z" fill="#343434"/>
<path d="M325.046 297.566C332.38 297.566 338.326 291.621 338.326 284.286C338.326 276.952 332.38 271.006 325.046 271.006C317.711 271.006 311.766 276.952 311.766 284.286C311.766 291.621 317.711 297.566 325.046 297.566Z" fill="#343434"/>
<path d="M202.796 241.447C211.286 239.177 219.746 238.617 226.796 240.137C227.427 240.283 227.982 240.659 228.351 241.191C228.721 241.723 228.879 242.374 228.796 243.017C228.641 243.649 228.259 244.203 227.722 244.572C227.186 244.941 226.532 245.099 225.886 245.017C219.646 243.767 211.886 244.137 204.076 246.227C197.646 247.947 191.696 250.517 187.196 253.927C186.669 254.274 186.03 254.408 185.408 254.302C184.787 254.196 184.228 253.858 183.846 253.357C183.496 252.833 183.361 252.196 183.469 251.576C183.577 250.956 183.92 250.401 184.426 250.027C189.962 246.049 196.192 243.139 202.796 241.447Z" fill="#343434"/>
<path d="M329.306 240.577C337.786 242.907 345.366 246.707 350.676 251.577C351.147 252.02 351.436 252.624 351.486 253.269C351.536 253.915 351.343 254.556 350.946 255.066C350.493 255.535 349.885 255.82 349.235 255.868C348.586 255.916 347.942 255.723 347.426 255.327C342.676 251.087 335.786 247.477 327.996 245.327C322.016 243.544 315.753 242.902 309.536 243.436C308.906 243.469 308.287 243.261 307.804 242.854C307.321 242.448 307.011 241.873 306.936 241.247C306.902 240.619 307.11 240.002 307.517 239.524C307.925 239.046 308.501 238.742 309.126 238.676C315.912 238.044 322.757 238.688 329.306 240.577Z" fill="#343434"/>
<path d="M406.203 304.632C412.279 288.721 407.351 272.059 395.195 267.417C383.039 262.775 368.26 271.911 362.183 287.823C356.107 303.735 361.036 320.397 373.192 325.039C385.347 329.68 400.127 320.544 406.203 304.632Z" fill="#FFD6C9"/>
<path d="M165.094 324.119C177.038 318.958 181.244 302.099 174.488 286.464C167.731 270.829 152.572 262.338 140.627 267.499C128.683 272.661 124.477 289.52 131.233 305.155C137.989 320.79 153.149 329.281 165.094 324.119Z" fill="#FFD6C9"/>
<path d="M395.747 302.46C399.77 295.491 399.379 287.733 394.874 285.132C390.368 282.531 383.454 286.071 379.431 293.04C375.408 300.009 375.798 307.767 380.304 310.368C384.809 312.969 391.724 309.429 395.747 302.46Z" fill="#F6AF99"/>
<path d="M377.946 312.226C383.27 312.226 387.586 307.91 387.586 302.586C387.586 297.262 383.27 292.946 377.946 292.946C372.622 292.946 368.306 297.262 368.306 302.586C368.306 307.91 372.622 312.226 377.946 312.226Z" fill="#FFD6C9"/>
<path d="M155.974 310.378C160.479 307.776 160.87 300.018 156.847 293.05C152.823 286.081 145.909 282.54 141.404 285.142C136.898 287.743 136.507 295.501 140.531 302.47C144.554 309.438 151.468 312.979 155.974 310.378Z" fill="#F6AF99"/>
<path d="M158.326 312.226C163.65 312.226 167.966 307.91 167.966 302.586C167.966 297.262 163.65 292.946 158.326 292.946C153.002 292.946 148.686 297.262 148.686 302.586C148.686 307.91 153.002 312.226 158.326 312.226Z" fill="#FFD6C9"/>
<circle cx="211.5" cy="312.5" r="28.5" fill="#FFD6C9"/>
<circle cx="326.5" cy="312.5" r="28.5" fill="#FFD6C9"/>
<rect x="206" y="427" width="7" height="72" rx="3.5" fill="#333333"/>
<rect x="329" y="428" width="7" height="72" rx="3.5" fill="#333333"/>
<path d="M270.5 196.005C223.7 196.005 186.333 200.005 173.5 202.005L170 237.005L147.5 266C142.166 216.167 160.1 115.805 270.5 115.005C380.9 114.205 395 216 388.5 266.5L365.5 237.005L373 205.505C358.333 202.338 317.3 196.005 270.5 196.005Z" fill="url(#paint0_linear_373_7)"/>
<circle cx="257.5" cy="98.5" r="77.5" fill="#DCE7F6"/>
<circle cx="183" cy="143" r="64" fill="#DCE7F6"/>
<circle cx="368" cy="143" r="64" fill="#DCE7F6"/>
<rect x="147" y="135" width="244" height="100" fill="#DCE7F6"/>
<rect x="156" y="200" width="223" height="25" fill="#CEDCEF"/>
<path d="M260.95 317.984C258.53 317.984 254.42 324.984 251.95 328.504C253.71 330.504 259.36 333.424 265.01 334.344C270.66 335.264 277.01 330.344 278.92 328.204C276.78 324.554 273.65 317.714 270.13 317.984C268.13 318.134 265.99 319.194 265.71 321.164C265.6 319.704 263.42 317.984 260.95 317.984Z" fill="#EB5757"/>
<defs>
<linearGradient id="paint0_linear_373_7" x1="268.97" y1="115" x2="268.97" y2="265.505" gradientUnits="userSpaceOnUse">
<stop offset="0.505208" stop-color="#151A28"/>
<stop offset="1" stop-color="#915A51"/>
</linearGradient>
</defs>
</svg>
