<svg width="537" height="537" viewBox="0 0 537 537" fill="none" xmlns="http://www.w3.org/2000/svg">
<rect width="537" height="537" rx="268.5" fill="white"/>
<path d="M393.576 536.605H145.396C145.39 513.489 151.841 490.831 164.021 471.185C176.202 451.54 193.629 435.687 214.336 425.415C215.336 424.915 216.336 424.415 217.336 423.975C227.408 419.304 238.064 416.014 249.016 414.195C262.058 412.042 275.358 411.957 288.426 413.945C299.858 415.693 310.987 419.039 321.486 423.885C322.966 424.551 324.433 425.265 325.886 426.025C346.265 436.427 363.372 452.26 375.318 471.774C387.263 491.288 393.582 513.725 393.576 536.605Z" fill="#DCE7F7"/>
<path d="M268.697 341.265C271.287 341.266 273.851 341.778 276.243 342.771C278.635 343.764 280.808 345.218 282.638 347.052C284.467 348.885 285.918 351.061 286.906 353.455C287.894 355.849 288.401 358.415 288.397 361.005V416.695C288.394 421.921 286.317 426.933 282.621 430.629C278.925 434.325 273.913 436.402 268.687 436.405C263.46 436.402 258.448 434.325 254.752 430.629C251.057 426.933 248.979 421.921 248.977 416.695V361.005C248.973 358.413 249.48 355.846 250.469 353.45C251.459 351.055 252.911 348.878 254.742 347.045C256.574 345.211 258.749 343.757 261.144 342.765C263.538 341.773 266.105 341.263 268.697 341.265Z" fill="#F3775C"/>
<path d="M269.067 392.664C335.783 392.664 389.867 330.714 389.867 254.294C389.867 177.875 335.783 115.924 269.067 115.924C202.351 115.924 148.267 177.875 148.267 254.294C148.267 330.714 202.351 392.664 269.067 392.664Z" fill="#FFA077"/>
<path d="M213.806 297.564C221.141 297.564 227.086 291.619 227.086 284.284C227.086 276.95 221.141 271.004 213.806 271.004C206.472 271.004 200.526 276.95 200.526 284.284C200.526 291.619 206.472 297.564 213.806 297.564Z" fill="#503131"/>
<path d="M326.047 297.564C333.381 297.564 339.327 291.619 339.327 284.284C339.327 276.95 333.381 271.004 326.047 271.004C318.712 271.004 312.767 276.95 312.767 284.284C312.767 291.619 318.712 297.564 326.047 297.564Z" fill="#503131"/>
<path d="M269.536 321.554C265.191 321.66 260.88 320.753 256.946 318.904C256.641 318.742 256.408 318.472 256.291 318.146C256.175 317.821 256.184 317.464 256.316 317.144C256.483 316.838 256.757 316.604 257.085 316.488C257.414 316.371 257.774 316.381 258.096 316.514C264.828 319.418 272.406 319.686 279.326 317.264C279.648 317.158 279.998 317.177 280.306 317.318C280.614 317.459 280.857 317.711 280.986 318.024C281.094 318.344 281.074 318.693 280.931 318.999C280.787 319.305 280.531 319.543 280.216 319.664C276.805 320.955 273.183 321.596 269.536 321.554Z" fill="#503131"/>
<path d="M407.205 304.639C413.281 288.727 408.353 272.065 396.197 267.423C384.041 262.781 369.262 271.917 363.185 287.829C357.109 303.741 362.038 320.403 374.193 325.045C386.349 329.687 401.129 320.551 407.205 304.639Z" fill="#FFA077"/>
<path d="M166.094 324.12C178.038 318.959 182.244 302.1 175.488 286.465C168.731 270.83 153.572 262.339 141.627 267.5C129.683 272.662 125.477 289.521 132.233 305.156C138.989 320.791 154.149 329.281 166.094 324.12Z" fill="#FFA077"/>
<path d="M396.739 302.463C400.762 295.494 400.371 287.736 395.866 285.135C391.36 282.534 384.446 286.074 380.423 293.043C376.399 300.012 376.79 307.77 381.296 310.371C385.801 312.972 392.715 309.432 396.739 302.463Z" fill="#F3775C"/>
<path d="M378.947 312.224C384.271 312.224 388.587 307.908 388.587 302.584C388.587 297.26 384.271 292.944 378.947 292.944C373.623 292.944 369.307 297.26 369.307 302.584C369.307 307.908 373.623 312.224 378.947 312.224Z" fill="#FFA077"/>
<path d="M156.968 310.372C161.474 307.77 161.865 300.012 157.841 293.044C153.818 286.075 146.904 282.534 142.398 285.136C137.893 287.737 137.502 295.495 141.525 302.464C145.549 309.432 152.463 312.973 156.968 310.372Z" fill="#F3775C"/>
<path d="M159.327 312.224C164.651 312.224 168.967 307.908 168.967 302.584C168.967 297.26 164.651 292.944 159.327 292.944C154.002 292.944 149.687 297.26 149.687 302.584C149.687 307.908 154.002 312.224 159.327 312.224Z" fill="#FFA077"/>
<rect x="320" y="507" width="36" height="6" rx="3" fill="#FAFCFF"/>
<path d="M289 416.5H248C246.334 425.5 243.7 448.9 246.5 470.5C249.3 492.1 263 519.833 269.5 531C274.667 520 285.6 493.2 288 474C290.4 454.8 289.667 427.667 289 416.5Z" fill="#EB5757"/>
<path d="M253.182 461.798C250.651 438.3 248.824 420.308 249 414.5L211 444.373L240.527 463.292L211 486.691L269 531C264.782 517.724 255.713 485.297 253.182 461.798Z" fill="white"/>
<path d="M284.273 462.095C286.716 438.697 288.48 420.783 288.31 415L325 444.745L296.491 463.582L325 486.881L269 531C273.073 517.781 281.829 485.493 284.273 462.095Z" fill="white"/>
<path d="M203.786 241.444C212.276 239.174 220.786 238.614 227.786 240.134C228.417 240.282 228.97 240.659 229.339 241.19C229.708 241.722 229.868 242.372 229.786 243.014C229.63 243.646 229.247 244.198 228.711 244.567C228.175 244.935 227.522 245.095 226.876 245.014C220.636 243.764 212.876 244.134 205.056 246.224C198.995 247.706 193.268 250.319 188.176 253.924C187.652 254.273 187.014 254.408 186.393 254.302C185.772 254.196 185.215 253.857 184.836 253.354C184.476 252.833 184.333 252.191 184.438 251.566C184.542 250.941 184.886 250.381 185.396 250.004C190.941 246.032 197.177 243.129 203.786 241.444Z" fill="#503131"/>
<path d="M330.296 240.574C338.776 242.904 346.356 246.704 351.666 251.574C352.138 252.018 352.427 252.622 352.477 253.267C352.527 253.913 352.334 254.553 351.937 255.064C351.484 255.532 350.875 255.818 350.226 255.866C349.577 255.914 348.933 255.721 348.416 255.324C343.666 251.084 336.776 247.474 328.986 245.324C323.01 243.542 316.751 242.9 310.537 243.434C309.905 243.467 309.285 243.259 308.801 242.853C308.316 242.446 308.004 241.872 307.926 241.244C307.892 240.617 308.1 240 308.508 239.522C308.916 239.043 309.492 238.74 310.116 238.674C316.903 238.041 323.748 238.686 330.296 240.574Z" fill="#503131"/>
<path d="M214.5 479.5C213.833 455.833 223.6 408.5 268 408.5C287 408.5 313 416.5 315.5 441" stroke="#333333" stroke-width="5" stroke-linecap="round"/>
<circle cx="214.5" cy="484.5" r="13.5" fill="#333333"/>
<circle cx="214.5" cy="484.5" r="7.5" fill="#E0E0E0"/>
<path d="M304.904 490C301.42 475.975 297.736 444.299 315.358 442.11C332.981 439.92 339.129 471.072 340 486.921" stroke="#333333" stroke-width="5" stroke-linecap="round"/>
<circle cx="308.5" cy="489.5" r="7.5" fill="#333333"/>
<circle cx="335.5" cy="488.5" r="7.5" fill="#333333"/>
<path d="M249 416.5V399L288.5 395.5L288 416.5H249Z" fill="#F3775C"/>
<rect x="350" y="491" width="3" height="16" fill="#2F80ED"/>
<rect x="346" y="491" width="3" height="16" fill="#EB5757"/>
<path d="M186 141.5L214 186.5C214 188.667 220.7 197.2 247.5 214C274.3 230.8 301 237.333 311 238.5C306.5 236.667 294.8 230.5 284 220.5C273.2 210.5 259.833 190.667 254.5 182C262.667 189.333 286.9 209.2 318.5 230C350.1 250.8 386.833 269.667 403.5 274.5C406 260.667 422.7 200.6 403.5 165C379.5 120.5 335 89 271 89C223.197 89 193.333 129.667 186 141.5Z" fill="#503131"/>
<path d="M188 141L211 190.184C210.123 198.382 205.342 219.295 193.235 237.364C181.128 255.433 149.511 274.15 133.5 278.5C130.43 265.116 123.631 217.087 131 190.184C138.369 163.281 172.209 148.863 188 141Z" fill="#503131"/>
<path d="M267.486 292C230.561 292 182.443 312.667 163 323C171.623 346.333 204.591 393 267.486 393C330.38 393 364.701 346.333 374 323C353.881 312.667 304.411 292 267.486 292Z" fill="#66FFE3"/>
<rect x="155" y="268.306" width="6" height="54" transform="rotate(-22.6024 155 268.306)" fill="white"/>
<rect x="384.9" y="267.089" width="6" height="56.132" transform="rotate(26.3335 384.9 267.089)" fill="white"/>
</svg>
