<svg width="537" height="537" viewBox="0 0 537 537" fill="none" xmlns="http://www.w3.org/2000/svg">
<rect width="537" height="537" rx="268.5" fill="white"/>
<path d="M390.28 536.594H142.1C142.077 507.227 152.477 478.805 171.449 456.388C190.421 433.971 216.733 419.016 245.7 414.184C258.742 412.032 272.042 411.947 285.11 413.934C314.407 418.435 341.122 433.282 360.416 455.784C379.709 478.286 390.304 506.954 390.28 536.594Z" fill="#333333"/>
<path d="M265.4 341.225C267.989 341.223 270.553 341.732 272.944 342.722C275.336 343.712 277.51 345.164 279.34 346.995C281.171 348.825 282.622 350.998 283.613 353.39C284.603 355.782 285.112 358.346 285.11 360.935V416.595C285.11 419.182 284.6 421.745 283.61 424.136C282.619 426.527 281.167 428.699 279.337 430.528C277.506 432.358 275.333 433.808 272.942 434.798C270.551 435.787 267.988 436.296 265.4 436.295C260.175 436.295 255.165 434.219 251.47 430.525C247.776 426.83 245.7 421.819 245.7 416.595V360.935C245.699 358.347 246.207 355.784 247.197 353.393C248.186 351.001 249.637 348.829 251.467 346.998C253.296 345.168 255.468 343.716 257.859 342.725C260.25 341.734 262.812 341.225 265.4 341.225Z" fill="#F0A07D"/>
<path d="M265.77 392.635C332.486 392.635 386.57 330.684 386.57 254.265C386.57 177.845 332.486 115.895 265.77 115.895C199.054 115.895 144.97 177.845 144.97 254.265C144.97 330.684 199.054 392.635 265.77 392.635Z" fill="#FFC691"/>
<path d="M210.51 297.535C217.844 297.535 223.79 291.589 223.79 284.255C223.79 276.92 217.844 270.975 210.51 270.975C203.176 270.975 197.23 276.92 197.23 284.255C197.23 291.589 203.176 297.535 210.51 297.535Z" fill="#333333"/>
<path d="M322.75 297.535C330.084 297.535 336.03 291.589 336.03 284.255C336.03 276.92 330.084 270.975 322.75 270.975C315.415 270.975 309.47 276.92 309.47 284.255C309.47 291.589 315.415 297.535 322.75 297.535Z" fill="#333333"/>
<path d="M200.5 241.415C208.99 239.135 217.45 238.575 224.5 240.105C225.131 240.251 225.686 240.627 226.056 241.159C226.425 241.691 226.584 242.342 226.5 242.985C226.343 243.616 225.961 244.169 225.425 244.537C224.888 244.906 224.236 245.065 223.59 244.985C217.35 243.725 209.59 244.105 201.78 246.195C195.716 247.672 189.986 250.281 184.89 253.885C184.364 254.234 183.724 254.37 183.102 254.264C182.479 254.158 181.921 253.818 181.54 253.315C181.188 252.794 181.053 252.157 181.161 251.538C181.269 250.919 181.613 250.366 182.12 249.995C187.655 246.008 193.89 243.097 200.5 241.415Z" fill="#333333"/>
<path d="M327.01 240.595C335.48 242.925 343.06 246.715 348.37 251.595C348.844 252.039 349.135 252.643 349.187 253.291C349.238 253.938 349.047 254.581 348.65 255.095C348.196 255.561 347.587 255.845 346.938 255.891C346.289 255.937 345.645 255.743 345.13 255.345C340.38 251.105 333.48 247.505 325.69 245.345C319.715 243.554 313.455 242.909 307.24 243.445C306.61 243.482 305.99 243.277 305.506 242.872C305.023 242.466 304.713 241.891 304.64 241.265C304.601 240.635 304.807 240.014 305.215 239.533C305.623 239.052 306.202 238.748 306.83 238.685C313.617 238.055 320.462 238.703 327.01 240.595Z" fill="#333333"/>
<path d="M403.907 304.59C409.983 288.679 405.055 272.017 392.899 267.375C380.744 262.733 365.964 271.869 359.888 287.781C353.811 303.693 358.74 320.355 370.896 324.997C383.051 329.638 397.831 320.502 403.907 304.59Z" fill="#FFC691"/>
<path d="M162.799 324.079C174.744 318.918 178.949 302.059 172.193 286.424C165.437 270.789 150.277 262.298 138.333 267.459C126.388 272.621 122.183 289.479 128.939 305.115C135.695 320.75 150.855 329.24 162.799 324.079Z" fill="#FFC691"/>
<path d="M393.446 302.424C397.47 295.455 397.079 287.697 392.573 285.096C388.068 282.495 381.154 286.035 377.13 293.004C373.107 299.973 373.498 307.731 378.003 310.332C382.509 312.933 389.423 309.393 393.446 302.424Z" fill="#F0A07D"/>
<path d="M375.65 312.185C380.974 312.185 385.29 307.869 385.29 302.545C385.29 297.221 380.974 292.905 375.65 292.905C370.326 292.905 366.01 297.221 366.01 302.545C366.01 307.869 370.326 312.185 375.65 312.185Z" fill="#FFC691"/>
<path d="M153.672 310.331C158.178 307.729 158.569 299.971 154.545 293.003C150.522 286.034 143.608 282.493 139.102 285.095C134.597 287.696 134.206 295.454 138.229 302.423C142.253 309.391 149.167 312.932 153.672 310.331Z" fill="#F0A07D"/>
<path d="M156.03 312.185C161.354 312.185 165.67 307.869 165.67 302.545C165.67 297.221 161.354 292.905 156.03 292.905C150.706 292.905 146.39 297.221 146.39 302.545C146.39 307.869 150.706 312.185 156.03 312.185Z" fill="#FFC691"/>
<path d="M260.95 317.985C258.53 317.985 254.42 324.985 251.95 328.505C253.71 330.505 259.36 333.425 265.01 334.345C270.66 335.265 277.01 330.345 278.92 328.205C276.78 324.555 273.65 317.715 270.13 317.985C268.13 318.135 265.99 319.195 265.71 321.165C265.6 319.705 263.42 317.985 260.95 317.985Z" fill="#EB5757"/>
<circle cx="269" cy="116" r="59" fill="#333333"/>
<path d="M291.192 417H240.382C238.316 425.961 235.053 449.259 238.523 470.764C241.993 492.27 255.445 519.882 263.5 531C269.903 520.048 286.978 493.365 289.952 474.249C292.927 455.133 292.018 428.118 291.192 417Z" fill="#F2F2F2"/>
<rect x="231" y="393" width="68" height="38" rx="11" fill="#F2F2F2"/>
<path d="M264.183 192.5C182.902 192.5 151.588 247.5 146.091 275C134.211 220.333 141.197 111 264.183 111C387.169 111 395.573 220.333 384.402 275C378.196 247.5 345.464 192.5 264.183 192.5Z" fill="#333333"/>
<ellipse cx="266" cy="179.5" rx="4" ry="40.5" fill="#FFC690"/>
<path d="M232.11 536.604H174.11C173.59 526.684 172.69 515.874 171.2 504.604C169.682 492.962 166.235 481.654 161 471.144C173.198 451.509 190.622 435.657 211.32 425.364C218.91 440.364 226.79 460.094 230.03 481.624C232.69 499.314 232.9 519.004 232.11 536.604Z" fill="#4F4F4F"/>
<path d="M369.77 467.805C363.522 479.239 359.453 491.734 357.77 504.655C356.28 515.875 355.38 526.655 354.86 536.655H296.86C296.07 519.005 296.28 499.365 298.93 481.725C302.28 459.455 310.59 439.145 318.42 423.935C319.9 424.601 321.367 425.315 322.82 426.075C341.773 435.752 357.936 450.117 369.77 467.805Z" fill="#4F4F4F"/>
<rect x="287.02" y="417" width="106.331" height="28" rx="11" transform="rotate(74.7954 287.02 417)" fill="white"/>
<rect x="270.212" y="425.861" width="106.331" height="28" rx="11" transform="rotate(108.45 270.212 425.861)" fill="white"/>
<circle cx="208.5" cy="317.5" r="28.5" fill="#FFC690"/>
<circle cx="322.5" cy="317.5" r="28.5" fill="#FFC690"/>
</svg>
