<svg xmlns="http://www.w3.org/2000/svg" width="47" height="47" viewBox="0 0 47 47" fill="none">
  <path d="M23.5316 0.911255C18.9763 0.911255 14.5234 2.26203 10.7359 4.79277C6.9484 7.32351 3.99638 10.9205 2.25318 15.129C0.509979 19.3375 0.0538779 23.9683 0.942555 28.436C1.83123 32.9037 4.02477 37.0075 7.24579 40.2285C10.4668 43.4496 14.5706 45.6431 19.0383 46.5318C23.506 47.4205 28.1369 46.9644 32.3453 45.2212C36.5538 43.478 40.1508 40.5259 42.6816 36.7384C45.2123 32.9509 46.5631 28.498 46.5631 23.9428C46.5562 17.8366 44.1275 11.9824 39.8097 7.66461C35.492 3.34685 29.6378 0.918113 23.5316 0.911255ZM23.5316 44.0954C19.5457 44.0954 15.6494 42.9135 12.3354 40.6991C9.02129 38.4847 6.43828 35.3373 4.91298 31.6549C3.38768 27.9725 2.98859 23.9204 3.76618 20.0112C4.54377 16.102 6.46312 12.5111 9.28151 9.69276C12.0999 6.87436 15.6908 4.95502 19.6 4.17742C23.5092 3.39983 27.5612 3.79892 31.2436 5.32422C34.926 6.84952 38.0734 9.43253 40.2878 12.7466C42.5022 16.0607 43.6841 19.957 43.6841 23.9428C43.6781 29.2857 41.5529 34.4081 37.7749 38.1861C33.9968 41.9641 28.8745 44.0893 23.5316 44.0954ZM33.0724 12.5307L18.6777 18.2885C18.6126 18.3275 18.551 18.3718 18.4934 18.421C18.3885 18.4756 18.2916 18.5444 18.2055 18.6254C18.1228 18.7108 18.053 18.8078 17.9982 18.9133C17.9608 18.9766 17.8975 19.0198 17.8687 19.0889L12.1108 33.4836C12.0061 33.7452 11.9804 34.0318 12.0371 34.3078C12.0937 34.5838 12.2301 34.8372 12.4293 35.0364C12.6286 35.2356 12.8819 35.372 13.1579 35.4286C13.4339 35.4853 13.7205 35.4596 13.9821 35.3549L28.3768 29.597C28.4418 29.5581 28.5035 29.5138 28.5611 29.4646C28.6659 29.41 28.7628 29.3412 28.849 29.2602C28.9317 29.1748 29.0015 29.0778 29.0562 28.9723C29.0937 28.909 29.157 28.8658 29.1858 28.7967L34.9437 14.402C35.0484 14.1404 35.074 13.8538 35.0174 13.5778C34.9608 13.3018 34.8244 13.0484 34.6251 12.8492C34.4259 12.65 34.1726 12.5136 33.8966 12.4569C33.6205 12.4003 33.334 12.426 33.0724 12.5307ZM16.0463 31.428L19.74 22.1866L25.2877 27.7344L16.0463 31.428Z" fill="#E32970"/>
</svg>