<svg xmlns="http://www.w3.org/2000/svg" width="71" height="71" viewBox="0 0 71 71" fill="none">
  <g filter="url(#filter0_d_352_581)">
    <path d="M35.5 68C53.4493 68 68 53.4493 68 35.5C68 17.5507 53.4493 3 35.5 3C17.5507 3 3 17.5507 3 35.5C3 53.4493 17.5507 68 35.5 68Z" fill="white" stroke="white" stroke-linecap="round" stroke-linejoin="round"/>
  </g>
  <path fill-rule="evenodd" clip-rule="evenodd" d="M34.8387 20.6042C34.1082 20.6042 33.5161 21.2105 33.5161 21.9584V23.3126H32.8548C29.2027 23.3126 26.2418 26.3435 26.2418 30.0831V34.1459C26.2418 35.1449 25.9339 36.2749 25.4448 37.416C24.9611 38.5445 24.3357 39.6024 23.7837 40.4345C22.7791 41.9492 23.4011 44.3429 25.4557 44.7224C26.7992 44.9704 28.6979 45.2657 30.9325 45.4569C30.9298 45.5229 30.9285 45.5894 30.9285 45.6563C30.9285 48.2739 33.001 50.3959 35.5575 50.3959C38.1141 50.3959 40.1866 48.2739 40.1866 45.6563C40.1866 45.5862 40.1852 45.5163 40.1823 45.4468C42.3671 45.2555 44.2238 44.9661 45.5442 44.7224C47.5988 44.3429 48.2209 41.9492 47.2164 40.4345C46.6643 39.6024 46.0388 38.5445 45.5552 37.416C45.0661 36.2749 44.7582 35.1449 44.7582 34.1459V30.0831C44.7582 26.3435 41.7973 23.3126 38.1452 23.3126H37.4839V21.9584C37.4839 21.2105 36.8918 20.6042 36.1613 20.6042H34.8387ZM35.5 45.6563C36.1763 45.6563 36.8387 45.6425 37.4835 45.6177C37.494 46.7069 36.6296 47.6287 35.5575 47.6287C34.4878 47.6287 33.6223 46.7096 33.6314 45.6219C34.24 45.6441 34.864 45.6563 35.5 45.6563ZM32.8548 26.0209C30.6633 26.0209 28.887 27.8395 28.887 30.0831V34.1459C28.887 35.6672 28.4314 37.1878 27.867 38.5044C27.2973 39.8334 26.5795 41.0401 25.972 41.9561C25.9585 41.9764 25.9522 41.9959 25.9501 42.0154C25.9482 42.0329 25.9498 42.0491 25.9531 42.0621C28.0464 42.4474 31.5328 42.948 35.5 42.948C39.4671 42.948 42.9536 42.4474 45.0469 42.0621C45.0502 42.0491 45.0518 42.0329 45.0499 42.0154C45.0477 41.9959 45.0415 41.9764 45.028 41.9561C44.4205 41.0401 43.7026 39.8334 43.133 38.5044C42.5686 37.1878 42.113 35.6672 42.113 34.1459V30.0831C42.113 27.8395 40.3366 26.0209 38.1452 26.0209H32.8548Z" fill="#FF7C8F"/>
  <circle cx="47.6862" cy="28.7292" r="5.91667" fill="#DF1463" stroke="white"/>
  <defs>
    <filter id="filter0_d_352_581" x="0.5" y="0.5" width="70" height="70" filterUnits="userSpaceOnUse" color-interpolation-filters="sRGB">
      <feFlood flood-opacity="0" result="BackgroundImageFix"/>
      <feColorMatrix in="SourceAlpha" type="matrix" values="0 0 0 0 0 0 0 0 0 0 0 0 0 0 0 0 0 0 127 0" result="hardAlpha"/>
      <feOffset/>
      <feGaussianBlur stdDeviation="1"/>
      <feComposite in2="hardAlpha" operator="out"/>
      <feColorMatrix type="matrix" values="0 0 0 0 0 0 0 0 0 0 0 0 0 0 0 0 0 0 0.5 0"/>
      <feBlend mode="normal" in2="BackgroundImageFix" result="effect1_dropShadow_352_581"/>
      <feBlend mode="normal" in="SourceGraphic" in2="effect1_dropShadow_352_581" result="shape"/>
    </filter>
  </defs>
</svg>
