<svg xmlns="http://www.w3.org/2000/svg" width="71" height="71" viewBox="0 0 71 71" fill="none">
  <g filter="url(#filter0_d_352_588)">
    <path d="M35.5 68C53.4493 68 68 53.4493 68 35.5C68 17.5507 53.4493 3 35.5 3C17.5507 3 3 17.5507 3 35.5C3 53.4493 17.5507 68 35.5 68Z" fill="white" stroke="white" stroke-linecap="round" stroke-linejoin="round"/>
  </g>
  <path d="M32.1133 29.5998H49.0404M32.1133 29.5998C32.1133 26.8753 29.8397 24.6667 27.0352 24.6667C24.2306 24.6667 21.957 26.8753 21.957 29.5998C21.957 32.3242 24.2306 34.5328 27.0352 34.5328C29.8397 34.5328 32.1133 32.3242 32.1133 29.5998ZM21.957 42.7545H38.8841M38.8841 42.7545C38.8841 45.479 41.1577 47.6876 43.9622 47.6876C46.7668 47.6876 49.0404 45.479 49.0404 42.7545C49.0404 40.0301 46.7668 37.8215 43.9622 37.8215C41.1577 37.8215 38.8841 40.0301 38.8841 42.7545Z" stroke="#DF1463" stroke-width="2" stroke-linecap="round"/>
  <defs>
    <filter id="filter0_d_352_588" x="0.5" y="0.5" width="70" height="70" filterUnits="userSpaceOnUse" color-interpolation-filters="sRGB">
      <feFlood flood-opacity="0" result="BackgroundImageFix"/>
      <feColorMatrix in="SourceAlpha" type="matrix" values="0 0 0 0 0 0 0 0 0 0 0 0 0 0 0 0 0 0 127 0" result="hardAlpha"/>
      <feOffset/>
      <feGaussianBlur stdDeviation="1"/>
      <feComposite in2="hardAlpha" operator="out"/>
      <feColorMatrix type="matrix" values="0 0 0 0 0 0 0 0 0 0 0 0 0 0 0 0 0 0 0.5 0"/>
      <feBlend mode="normal" in2="BackgroundImageFix" result="effect1_dropShadow_352_588"/>
      <feBlend mode="normal" in="SourceGraphic" in2="effect1_dropShadow_352_588" result="shape"/>
    </filter>
  </defs>
</svg>