<svg xmlns="http://www.w3.org/2000/svg" width="50" height="50" viewBox="0 0 50 50" fill="none">
  <path d="M15.3189 25.289H15.3397M24.5108 25.289H24.5315M33.7234 25.289H33.7442M24.5315 48.3205C37.2514 48.3205 47.5631 38.0089 47.5631 25.289C47.5631 12.569 37.2514 2.25745 24.5315 2.25745C11.8116 2.25745 1.5 12.569 1.5 25.289C1.5 28.9733 2.36511 32.4555 3.90325 35.5438C4.31201 36.3644 4.44806 37.3025 4.21109 38.188L2.83931 43.3151C2.2438 45.5406 4.27993 47.5766 6.50556 46.9813L11.6325 45.6095C12.5181 45.3725 13.4562 45.5086 14.2768 45.9172C17.365 47.4555 20.8472 48.3205 24.5315 48.3205Z" stroke="#E32970" stroke-width="2.93129" stroke-linecap="round"/>
</svg>