<svg xmlns="http://www.w3.org/2000/svg" width="50" height="50" viewBox="0 0 50 50" fill="none">
  <path d="M38.2793 43.5411C37.9129 36.8816 35.8739 32.0254 24.5313 32.0254C13.189 32.0254 11.15 36.8816 10.7835 43.5411M47.5631 25.1159C47.5631 37.8359 37.2515 48.1474 24.5315 48.1474C11.8116 48.1474 1.5 37.8359 1.5 25.1159C1.5 12.3959 11.8116 2.08435 24.5315 2.08435C37.2515 2.08435 47.5631 12.3959 47.5631 25.1159ZM31.441 18.2064C31.441 22.0224 28.3475 25.1159 24.5315 25.1159C20.7156 25.1159 17.6221 22.0224 17.6221 18.2064C17.6221 14.3904 20.7156 11.297 24.5315 11.297C28.3475 11.297 31.441 14.3904 31.441 18.2064Z" stroke="#E32970" stroke-width="2.93129" stroke-linecap="round"/>
</svg>