<svg xmlns="http://www.w3.org/2000/svg" width="19" height="17" viewBox="0 0 19 17" fill="none">
  <path d="M13.5602 1.26649C13.1107 1.0676 12.6859 0.879859 12.2988 0.696356C11.3071 0.227522 10.4087 0 9.55132 0C7.8253 0 6.63136 0.939789 5.8824 1.64675L2.25056 5.07868C0.307102 6.9153 -0.0030421 8.7848 1.24484 11.1412C1.43868 11.5071 1.63758 11.9091 1.84827 12.335C2.98435 14.6288 4.15863 17 6.08074 17C6.13468 17 6.18805 16.9984 6.24255 16.9942C8.2259 16.8478 8.78888 14.4368 9.28557 12.3106C9.36422 11.9738 9.43951 11.6508 9.51593 11.3613C9.64965 10.8606 9.91203 10.5498 10.6318 9.86885L10.7307 9.77497L10.7913 9.7177L10.9515 9.56707C11.6729 8.8861 12.0021 8.63842 12.5337 8.5122C12.8376 8.44007 13.1787 8.369 13.5349 8.29528C15.7862 7.82645 18.3388 7.29503 18.4933 5.41917C18.6495 3.51625 16.0627 2.37228 13.5602 1.26649ZM17.3392 5.32317C17.2297 6.64535 14.0945 7.03569 12.228 7.47748C11.4026 7.67424 10.9003 8.08685 10.1424 8.8023C10.0896 8.85216 10.0362 8.90201 9.98283 8.95239C9.92945 9.00278 9.87664 9.05369 9.82382 9.10301C9.06588 9.81952 8.62988 10.2931 8.42199 11.0733C7.9534 12.8367 7.541 15.7998 6.14198 15.9032C6.1167 15.9048 6.09141 15.9059 6.06613 15.9059C4.5817 15.9059 3.3327 12.7195 2.2309 10.641C1.11168 8.52758 1.59094 7.15714 3.02705 5.79996C3.30236 5.53956 3.64565 5.21604 4.06536 4.81934C4.49406 4.41415 5.00422 3.93205 5.60878 3.36086C6.02848 2.96415 6.37122 2.64117 6.64709 2.38023C7.53932 1.5375 8.43716 1.04374 9.52492 1.04374C10.1885 1.04374 10.9234 1.22671 11.7701 1.62819C14.008 2.68731 17.4572 3.88962 17.3392 5.32317ZM8.91699 5.83603H10.0407V4.77532H8.91699V5.83603ZM8.91699 4.24496H10.0407V3.18425H8.91699V4.24496ZM10.6026 4.24496H11.7263V3.18425H10.6026V4.24496ZM10.6026 5.83603H11.7263V4.77532H10.6026V5.83603ZM6.30267 9.02081L6.73024 8.61721C6.94094 8.41833 6.94094 8.09587 6.73024 7.89699C6.51955 7.6981 6.1785 7.6981 5.9678 7.89699L5.54023 8.30059L5.11266 7.89699C4.90196 7.6981 4.56092 7.6981 4.35022 7.89699C4.13952 8.09587 4.13952 8.41833 4.35022 8.61721L4.77779 9.02081L4.35022 9.42441C4.13952 9.62329 4.13952 9.94575 4.35022 10.1441C4.56092 10.3425 4.90252 10.343 5.11266 10.1441L5.54023 9.7405L5.98016 10.1558C6.19086 10.3547 6.53191 10.3547 6.7426 10.1558C6.9533 9.95689 6.9533 9.63443 6.7426 9.43555L6.30267 9.02081Z" fill="#df1463"/>
</svg>