<svg xmlns="http://www.w3.org/2000/svg" width="17" height="17" viewBox="0 0 17 17" fill="none">
  <path d="M0.5 16C0.5 15.4477 0.825615 15 1.22727 15H15.7727C16.1744 15 16.5 15.4477 16.5 16C16.5 16.5523 16.1744 17 15.7727 17H1.22727C0.825615 17 0.5 16.5523 0.5 16Z" fill="#DF1463"/>
  <path fill-rule="evenodd" clip-rule="evenodd" d="M12.4581 0.688932C11.6708 -0.229644 10.3943 -0.229644 9.6069 0.688932L2.4335 9.05786C2.16237 9.37423 1.97418 9.77417 1.891 10.2109L1.53295 12.0906C1.31953 13.211 2.17626 14.2105 3.13661 13.9616L4.74781 13.5438C5.12212 13.4468 5.46495 13.2272 5.73608 12.9109L12.9095 4.54194C13.6968 3.62336 13.6968 2.13406 12.9095 1.21548L12.4581 0.688932ZM10.5573 1.79775C10.8197 1.49156 11.2453 1.49156 11.5077 1.79775L11.9591 2.3243C12.2215 2.63049 12.2215 3.12693 11.9591 3.43312L10.6677 4.93974L9.2659 3.30438L10.5573 1.79775ZM8.3155 4.4132L3.38391 10.1668C3.29354 10.2721 3.23081 10.4055 3.20308 10.551L2.84503 12.4308L4.45624 12.013C4.58101 11.9807 4.69529 11.9075 4.78566 11.8021L9.71725 6.04857L8.3155 4.4132Z" fill="#DF1463"/>
</svg>