<svg xmlns="http://www.w3.org/2000/svg" width="24" height="17" viewBox="0 0 24 17" fill="none">
  <path d="M12.7184 8.85975L20.8643 6.45142V10.4556C20.3802 10.2265 19.8046 10.0937 19.1872 10.0937C17.4671 10.0937 16.0726 11.1244 16.0726 12.3958C16.0726 13.6671 17.4671 14.6978 19.1872 14.6978C20.9073 14.6978 22.3018 13.6671 22.3018 12.3958V5.62851C22.3018 4.81901 22.3018 4.1401 22.2247 3.59918C22.2138 3.52274 22.2009 3.44673 22.1868 3.37581C22.1125 3.00627 21.9813 2.66153 21.7281 2.37365C21.6015 2.22971 21.4443 2.09999 21.2486 1.98849C21.2119 1.96758 21.1738 1.94732 21.1344 1.92772L21.1265 1.92381C20.4487 1.59041 19.6868 1.61425 18.9019 1.76209C18.1428 1.90506 17.2017 2.19621 16.0477 2.55324L14.0409 3.17407C13.4999 3.34139 13.0417 3.48315 12.682 3.62998C12.2992 3.78621 11.9696 3.97047 11.7223 4.24504C11.4752 4.51962 11.3724 4.81552 11.3253 5.13678C11.2809 5.43872 11.2809 5.80592 11.2809 6.23933V11.8722C10.7968 11.6431 10.2213 11.5103 9.60384 11.5103C7.8837 11.5103 6.48926 12.541 6.48926 13.8124C6.48926 15.0838 7.8837 16.1145 9.60384 16.1145C11.324 16.1145 12.7184 15.0838 12.7184 13.8124V8.85975Z" fill="#DF1463"/>
  <path opacity="0.5" d="M7.92741 1.4165C7.92741 1.12311 7.60561 0.885254 7.20866 0.885254C6.81171 0.885254 6.48991 1.12311 6.48991 1.4165V5.49715C6.00581 5.26807 5.4303 5.13525 4.81283 5.13525C3.09268 5.13525 1.69824 6.16593 1.69824 7.43734C1.69824 8.70872 3.09268 9.73942 4.81283 9.73942C6.53297 9.73942 7.92741 8.70872 7.92741 7.43734V3.54469C8.59682 3.90214 9.39323 4.07275 10.0837 4.07275C10.4806 4.07275 10.8024 3.8349 10.8024 3.5415C10.8024 3.24811 10.4806 3.01025 10.0837 3.01025C9.64824 3.01025 9.09303 2.88551 8.65727 2.61952C8.24213 2.3661 7.92741 1.98165 7.92741 1.4165Z" fill="#FF7388"/>
</svg>