<svg xmlns="http://www.w3.org/2000/svg" width="22" height="19" viewBox="0 0 22 19" fill="none">
  <path d="M1 6.3125H8.22222M8.22222 6.3125H21M8.22222 6.3125L13.7778 1M13.7778 1H17.4444C18.6074 1 19.2271 1 19.6912 1.18902M13.7778 1H4.55556C3.31099 1 2.68871 1 2.21336 1.23161C1.79521 1.43534 1.45526 1.76042 1.24221 2.16027C1 2.61483 1 3.20988 1 4.4V14.6C1 15.7901 1 16.3852 1.24221 16.8398C1.45526 17.2396 1.79521 17.5647 2.21336 17.7684C2.68871 18 3.31099 18 4.55556 18H17.4444C18.689 18 19.3113 18 19.7867 17.7684C20.2048 17.5647 20.5448 17.2396 20.7578 16.8398C21 16.3852 21 15.7901 21 14.6V4.4C21 3.20988 21 2.61483 20.7578 2.16027C20.5448 1.76042 20.2048 1.43534 19.7867 1.23161C19.7556 1.21644 19.7238 1.20227 19.6912 1.18902M19.6912 1.18902L14.3333 6.31266M7.66667 1L2.11111 6.3125M14.3333 12.1562L11.5556 10.5625L8.77778 8.96875V12.1562V15.3438L11.5556 13.75L14.3333 12.1562Z" stroke="#DF1463" stroke-width="1.5" stroke-linejoin="round"/>
</svg>