<svg xmlns="http://www.w3.org/2000/svg" width="16" height="17" viewBox="0 0 16 17" fill="none">
  <path d="M14.751 8.40408L15.8363 0H6.70148L7.96752 8.64418C7.96752 8.64418 6.7601 12.7027 1.78696 14.2869C-0.474207 15.0073 0.0534194 16.1478 0.0534194 16.1478L4.20097 16.9226C5.42077 17.1505 6.70211 16.8677 7.60065 16.1727C7.60065 16.1727 10.0779 14.1669 11.4346 13.2064C12.9035 12.1664 13.3943 12.6061 13.545 13.5666C13.6958 14.527 13.6958 16.8081 13.6958 16.8081H14.9017C14.9017 16.8081 15.5365 15.0675 15.8062 12.9663C16.0091 11.384 16.4092 10.8052 14.751 8.40408ZM9.47469 4.8028L8.67062 1.60109H10.0776L9.47469 4.8028Z" fill="#df1463"/>
</svg>