<svg xmlns="http://www.w3.org/2000/svg" width="17" height="17" viewBox="0 0 17 17" fill="none">
  <path d="M4.48054 7.93832C4.66349 7.98326 4.8634 8.00539 5.06943 7.99888C5.37839 7.98959 5.66432 7.91731 5.8955 7.80235C6.12703 7.68724 6.30582 7.52962 6.40735 7.34641C6.47524 7.22429 6.50797 7.0911 6.49835 6.9538C6.48442 6.74783 6.37595 6.55714 6.20352 6.4031C6.03093 6.24891 5.79413 6.12953 5.51947 6.06164C5.33652 6.0167 5.13657 5.99472 4.93082 6.00108C4.6217 6.01052 4.33581 6.08265 4.10451 6.19763C3.87321 6.3129 3.69426 6.47055 3.59266 6.65373C3.52477 6.7757 3.492 6.90907 3.50166 7.04615C3.51571 7.25231 3.62402 7.44282 3.79661 7.59704C3.96909 7.75105 4.206 7.87058 4.48054 7.93832ZM4.20894 6.67926C4.30187 6.57768 4.43867 6.49446 4.60082 6.44284C4.70894 6.40865 4.82836 6.38746 4.95731 6.38356C5.15039 6.3777 5.32847 6.41058 5.48125 6.4728C5.63367 6.53467 5.75834 6.62584 5.83577 6.73399C5.88745 6.80596 5.91896 6.88542 5.92481 6.97157C5.9336 7.10036 5.88416 7.21893 5.79119 7.32085C5.6981 7.42262 5.56138 7.5055 5.39915 7.5573C5.29107 7.59165 5.17177 7.61266 5.0429 7.61656C4.84959 7.62242 4.6715 7.58922 4.51861 7.5275C4.36631 7.46529 4.24163 7.37427 4.1642 7.26615C4.11256 7.19415 4.08105 7.11454 4.0752 7.02873C4.06653 6.89975 4.11601 6.78106 4.20894 6.67926Z" fill="#FF7C8F"/>
  <path d="M9.50109 13.5232C9.52658 13.799 9.99451 14.0123 10.5464 13.9994C11.0979 13.9868 11.5245 13.7528 11.4989 13.4769C11.4734 13.201 11.0055 12.9877 10.4539 13.0006C9.90214 13.0133 9.47551 13.2472 9.50109 13.5232Z" fill="#E4256A"/>
  <path d="M7.97688 13.0011C7.70108 13.0267 7.48779 13.4946 7.50054 14.0463C7.5133 14.5979 7.74731 15.0245 8.02312 14.9989C8.2989 14.9733 8.51221 14.5054 8.49946 13.9539C8.4867 13.4022 8.25267 12.9757 7.97688 13.0011Z" fill="#EF4879"/>
  <path d="M5.02313 13.9989C5.29897 13.9735 5.51222 13.5056 5.49946 12.9537C5.48671 12.4021 5.25279 11.9754 4.97693 12.0011C4.70103 12.0268 4.48784 12.4946 4.50054 13.0463C4.51332 13.5982 4.74723 14.0246 5.02313 13.9989Z" fill="#F45980"/>
  <path d="M3.50055 10.5232C3.5133 10.7991 3.74715 11.0122 4.02307 10.9995C4.29874 10.9869 4.51221 10.7529 4.49946 10.477C4.48671 10.201 4.25261 9.98791 3.97686 10.0005C3.701 10.0134 3.48777 10.2471 3.50055 10.5232Z" fill="#F45980"/>
  <path d="M9.42714 9.56412L9.42031 9.54839L8.3696 9L8.34749 9.00048C7.81855 9.00913 7.26064 9.25467 6.89175 9.64201C6.54189 10.0094 6.37419 10.3889 6.21192 10.7559C6.10121 11.0062 5.98681 11.2652 5.81477 11.5202C5.67238 11.7314 5.58734 11.8102 5.5871 11.8105L5.5 11.887L5.59612 11.917C6.04315 12.0566 6.68427 12.0187 7.35484 11.8136C8.05931 11.5983 8.67917 11.236 9.10004 10.7943C9.46913 10.407 9.59429 9.93572 9.42714 9.56412ZM8.4852 10.9479C8.46592 10.9594 8.44553 10.9719 8.42448 10.986C8.18936 11.1425 7.92222 11.1113 8.13588 10.8198C8.34992 10.5283 8.06772 10.4694 7.79658 10.6739C7.45653 10.9303 7.34422 10.7634 7.42089 10.6327C7.49736 10.5022 7.7266 10.3115 7.57667 10.2179C7.48629 10.1616 7.33964 10.2714 7.1093 10.4236C6.97748 10.511 6.70672 10.5135 6.87323 10.1679C6.95397 10.0375 7.04879 9.91038 7.16736 9.78572C7.42462 9.51549 7.81592 9.33274 8.18991 9.30755L9.08975 9.77689C9.18351 10.0461 9.0822 10.38 8.82467 10.6506C8.72551 10.7542 8.61142 10.854 8.4852 10.9479Z" fill="#DF1463"/>
  <path d="M8.75497 8.51988L9.32873 8.90394C9.50508 9.02266 9.75145 9.0315 10.0091 8.92955C10.2668 8.82713 10.5137 8.62256 10.6921 8.36364L11.5 7.19045L9.72411 6L8.83291 7.11744C8.63589 7.36414 8.51644 7.65394 8.50156 7.91906C8.48671 8.18417 8.57857 8.40143 8.75497 8.51988Z" fill="#DF1463"/>
  <path d="M15.2827 1.14884C15.5706 0.737816 15.5726 0.268462 15.2878 0.0805964L15.284 0.0785795C14.9991 -0.109123 14.5267 0.0502126 14.2091 0.441819L10.5 5.01009L12.003 6L15.2827 1.14884Z" fill="#DF1463"/>
  <path d="M16.4955 9.52543L16.4922 9.45697C16.4661 8.95145 16.3608 8.50259 16.1793 8.12275C16.0092 7.76607 15.7738 7.47204 15.4792 7.24857C15.2969 7.10976 15.0938 7.00022 14.8756 6.9233C14.6325 6.83768 14.3772 6.79413 14.1168 6.79413C14.0855 6.79413 14.0546 6.79472 14.0235 6.79605C13.7742 6.80646 13.5357 6.85639 13.3147 6.94468C13.0875 7.03606 12.8939 7.16177 12.7395 7.31854C12.4132 7.64997 11.9733 7.8875 11.4846 8.00937L11.1547 8.45919C11.0559 8.59397 10.9381 8.71274 10.8106 8.81803C10.8425 8.81726 10.8743 8.81726 10.9064 8.81592C11.8526 8.77677 12.7404 8.40349 13.3423 7.79191C13.4189 7.71422 13.5231 7.64731 13.6435 7.59873C13.7707 7.54784 13.9148 7.51794 14.0608 7.51218L14.1169 7.51122C14.2996 7.51122 14.4775 7.5461 14.6456 7.61493C14.8543 7.70093 15.0378 7.83531 15.1909 8.01463C15.3082 8.1523 15.4065 8.31521 15.4833 8.49896C15.6012 8.78049 15.6709 9.11383 15.6905 9.49018L15.6932 9.55306C15.7406 10.8451 15.3717 12.1062 14.6264 13.1998C13.896 14.2705 12.8492 15.1202 11.5991 15.6568C10.7351 16.0275 9.80498 16.2362 8.83464 16.2764C8.72148 16.281 8.60887 16.2834 8.49692 16.2834C7.17665 16.2834 5.88351 15.9593 4.75737 15.3458C3.56008 14.6935 2.6084 13.7537 2.00512 12.6277C1.58925 11.8523 1.35564 11.019 1.31061 10.1515C1.23796 8.74018 1.67982 7.38028 2.58842 6.21863C3.46107 5.10345 4.74162 4.23156 6.19399 3.76362C6.2742 3.73779 6.37234 3.72159 6.46996 3.71793C6.48786 3.71716 6.50601 3.71675 6.52425 3.71675C6.63814 3.71675 6.75325 3.73181 6.85677 3.76034C6.98242 3.79429 7.0943 3.84825 7.18043 3.91649C7.24059 3.96432 7.28884 4.0185 7.32815 4.08232C7.38719 4.18008 7.41949 4.29305 7.42695 4.42802C7.43187 4.5248 7.42317 4.63064 7.40069 4.74269C7.38657 4.81499 7.36898 4.89076 7.34907 4.97638C7.32985 5.05909 7.30966 5.14608 7.29131 5.23783C7.26064 5.39284 7.22695 5.60014 7.23885 5.83055C7.27126 6.45793 7.50962 7.05468 7.9283 7.55617C7.97181 7.60821 8.0177 7.65815 8.06443 7.70753C8.08937 7.42489 8.20736 7.13757 8.39844 6.87963C8.36617 6.8291 8.32989 6.7809 8.30172 6.72809C8.1454 6.43656 8.05763 6.12325 8.04067 5.7974C8.03418 5.67362 8.04726 5.53577 8.08192 5.3632C8.09669 5.28761 8.11484 5.20915 8.13621 5.11755C8.15466 5.03793 8.17388 4.95464 8.19126 4.86787C8.22387 4.70397 8.2365 4.54493 8.22873 4.39454C8.21568 4.12692 8.13267 3.87684 7.98853 3.67134C7.85812 3.48374 7.67124 3.32467 7.44828 3.21148C7.3166 3.14401 7.17159 3.09175 7.01739 3.05591C6.85698 3.0189 6.69008 3 6.5213 3C6.49171 3 6.46226 3.00059 6.43319 3.00173C6.25064 3.00966 6.07844 3.03916 5.92146 3.08968C4.29185 3.61453 2.91181 4.55447 1.9304 5.80791C0.918598 7.09935 0.427026 8.61287 0.508758 10.1848C0.582511 11.6147 1.12598 12.9753 2.08057 14.1196C3.01206 15.2352 4.27447 16.0791 5.73108 16.5598C6.61657 16.8519 7.54667 17 8.49543 17C8.62032 17 8.74569 16.9975 8.87176 16.9921C9.9502 16.9476 10.9849 16.7156 11.9469 16.3026C12.8744 15.9047 13.698 15.3548 14.395 14.6682C15.8197 13.2661 16.5656 11.4396 16.4955 9.52543Z" fill="#DF1463"/>
</svg>