<svg xmlns="http://www.w3.org/2000/svg" width="11" height="17" viewBox="0 0 11 17" fill="none">
  <path d="M10.9679 9.49012C10.8112 9.18412 10.1862 8.77665 10.1862 8.77665C10.1862 8.77665 9.09235 7.37494 8.71713 7.24771C8.34175 7.11994 7.37829 6.50313 6.94068 6.37589C6.50306 6.24866 5.86231 6.12036 5.72134 5.89166C5.65878 5.78966 5.6275 5.64954 5.72134 5.54754C5.81486 5.44554 6.08092 5.14007 6.08092 4.97419C6.08092 4.80857 6.0964 4.57907 6.0964 4.52834C6.0964 4.47734 6.22152 4.18448 6.06511 3.90398C5.83592 3.4925 4.75231 3.29225 4.28337 3.77648C4.13555 3.84548 4.02623 4.03338 3.92709 4.25132C3.88921 4.09132 3.86485 3.97082 3.8609 3.92948C3.84575 3.7636 4.88497 1.84598 4.98639 1.62967C5.08781 1.41305 4.97124 1.10087 4.74436 0.915931C4.51786 0.731255 4.18162 0.215079 4.15828 0.087844C4.1349 -0.0399218 3.97817 -0.0141561 3.95511 0.0749612C3.93141 0.164112 3.97092 0.419079 4.06444 0.610196C3.63472 0.501755 3.3298 0.743872 3.34528 0.909755C3.35848 1.04934 3.38381 1.18302 3.48491 1.19132C3.47338 1.23667 3.50039 1.30325 3.59554 1.38107C3.84579 1.58507 4.25212 1.45757 4.15828 1.61031C4.06444 1.76331 2.84543 3.72545 2.87638 3.92945C2.89679 4.06123 2.98273 4.70464 3.07462 5.24632C2.79341 5.29679 2.48589 5.34268 2.34492 5.68786C2.12628 6.22309 1.68837 6.50333 1.68837 6.50333C1.25108 6.55433 1.06339 6.40159 1.25108 6.55433C1.43877 6.70733 2.03276 7.08956 2.47005 6.86006C2.65379 6.95559 2.96265 7.0791 3.29588 7.12768C3.18167 7.42106 3.09703 7.65913 3.1892 7.85403C3.50206 8.51677 3.53297 9.30647 3.30777 9.88733C3.18195 10.2113 2.39103 10.8222 1.48455 11.9689C0.578038 13.1159 0.50627 14.4231 0.000468465 16.0089C0.000468465 16.0089 -0.0525639 16.338 0.969873 16.2891C2.37852 16.2215 1.75159 16.5441 3.59554 16.7991C5.30975 17.0353 7.80504 16.215 8.46558 14.7484C8.7122 15.0713 8.97907 15.4141 8.97907 15.4141L9.16016 16.3519C9.16016 16.3519 9.08314 16.7615 9.00278 16.8442C8.92242 16.9269 9.09565 17.0267 9.31625 16.9934C9.53754 16.9599 9.91227 16.7916 9.94188 16.6402C9.97153 16.4888 9.92868 16.0497 9.86286 15.9482C9.797 15.8467 9.82335 15.8188 9.93993 15.8805C10.0664 15.9477 10.0604 16.048 10.1316 16.1071C10.2422 16.1986 10.3436 16.1187 10.3311 16.0706C10.3193 16.0228 10.2231 15.7463 10.0822 15.4806C9.96298 15.2556 9.73509 15.0635 9.70482 14.998L9.17931 14.3108C9.8161 14.1674 10.6097 14.2246 10.4734 14.0974C10.0354 13.6897 9.13585 12.6686 8.82303 12.1844C8.51038 11.7002 7.37837 10.1218 6.12776 9.45937C6.12776 9.45937 6.60126 7.8526 6.78895 7.72537C6.97664 7.59787 8.37311 8.03781 8.52952 8.06304C8.68626 8.08828 9.59294 9.05675 9.62389 9.18398C9.65485 9.31148 9.52972 9.69398 9.62389 10.0505C9.71741 10.4075 9.87349 10.1015 9.93606 9.84645C9.93606 9.84645 10.5617 10.5605 10.6868 10.5857C10.8113 10.6112 10.8429 10.3565 10.7494 10.2035C10.6551 10.0506 11.124 9.79588 10.9679 9.49012ZM3.72066 1.17717C3.6818 1.1455 3.63863 1.12939 3.60014 1.1267C3.60804 1.0419 3.48951 0.899097 3.6581 0.820439C3.87707 0.718704 4.06439 0.820439 4.15828 0.998939C4.25212 1.17717 3.87674 1.30467 3.72066 1.17717Z" fill="#DF1463"/>
</svg>