<svg xmlns="http://www.w3.org/2000/svg" width="17" height="17" viewBox="0 0 17 17" fill="none">
  <path fill-rule="evenodd" clip-rule="evenodd" d="M14.4347 2.43009C14.2694 2.27472 13.0573 1.16452 11.3436 0.501149C9.67856 -0.143331 7.44982 -0.388896 5.31469 1.15344C4.16343 1.0425 3.231 1.31267 2.59022 1.98988C1.92566 2.69221 1.75722 3.65137 1.74483 4.44629C1.73208 5.26588 1.88285 6.0859 2.02697 6.68085C2.10012 6.98284 2.1741 7.23685 2.23028 7.41697C2.24886 7.47651 2.26556 7.52822 2.27972 7.57105C2.32662 9.511 3.29918 11.2264 4.78148 12.3102C4.19875 12.492 3.66486 12.7151 3.18561 12.9711C1.83721 13.6914 0.830618 14.7278 0.52675 15.9181C0.407686 16.3845 0.697244 16.8572 1.1735 16.9738C1.64974 17.0904 2.13234 16.8068 2.2514 16.3404C2.39197 15.7897 2.94089 15.085 4.03687 14.4996C5.11117 13.9257 6.6277 13.5177 8.50001 13.5177C10.3723 13.5177 11.8888 13.9257 12.9631 14.4996C14.0592 15.085 14.608 15.7897 14.7487 16.3404C14.8677 16.8068 15.3502 17.0904 15.8265 16.9738C16.3028 16.8572 16.5923 16.3845 16.4732 15.9181C16.1694 14.7278 15.1628 13.6914 13.8144 12.9711C13.3352 12.7151 12.8012 12.492 12.2185 12.3102C13.7214 11.2115 14.7002 9.46329 14.7217 7.49035C14.7483 7.31468 14.7754 7.14327 14.802 6.97526C15.0324 5.5193 15.2228 4.31631 14.6785 2.80152C14.6328 2.67437 14.5551 2.5432 14.4347 2.43009ZM12.9443 7.4241C12.9443 6.73439 12.534 6.10702 11.703 5.60972C10.8669 5.10926 9.7007 4.81253 8.50001 4.81253C7.29933 4.81253 6.13314 5.10926 5.29693 5.60973C4.46681 6.10655 4.05646 6.73317 4.05567 7.4221V7.4241C4.05567 9.82796 6.04547 11.7767 8.50001 11.7767C10.9545 11.7767 12.9443 9.82796 12.9443 7.4241ZM4.36993 4.12413C4.06836 4.30462 3.78316 4.51267 3.52595 4.74756C3.52227 4.65535 3.52095 4.56358 3.52236 4.47282C3.53233 3.83293 3.67516 3.40472 3.89415 3.17328C4.06428 2.99349 4.44517 2.76272 5.42066 2.92291C5.67508 2.96468 5.93548 2.89615 6.13423 2.73511C7.70635 1.46132 9.32915 1.59349 10.6901 2.12031C11.835 2.56346 12.7231 3.26756 13.0628 3.56043C13.1727 3.90709 13.2298 4.22566 13.2482 4.55378C13.0534 4.39663 12.8459 4.25331 12.63 4.12413C11.4663 3.42764 9.96593 3.07149 8.50001 3.07149C7.0341 3.07149 5.53367 3.42764 4.36993 4.12413Z" fill="white"/>
</svg>