<svg xmlns="http://www.w3.org/2000/svg" width="16" height="17" viewBox="0 0 16 17" fill="none">
  <path d="M15.0809 14.7622C14.9597 14.2593 14.488 13.8834 13.926 13.8834C13.4012 13.8834 12.9455 14.2055 12.7921 14.6852C12.7835 14.7132 12.7494 14.7334 12.7117 14.7334C12.667 14.7334 12.6359 14.6909 12.6273 14.6775C12.4685 14.4336 12.1621 14.254 11.8205 14.191C11.6978 13.6904 11.227 13.3167 10.6667 13.3167C10.4658 13.3167 10.2739 13.3643 10.1029 13.4538C9.88184 13.1937 9.54584 13.0334 9.18525 13.0334C8.6229 13.0334 8.15089 13.4096 8.03002 13.9125C7.80513 13.9624 7.59715 14.0746 7.43656 14.2367C7.29552 14.3786 7.20368 14.5497 7.1542 14.7334H6.92278C7.29906 13.3657 7.43034 12.0513 7.40278 10.8435C7.48128 10.6655 7.76513 10.3196 8.13787 9.91273C12.3268 9.82573 14.5185 5.83498 14.5185 3.68336C14.5185 3.52697 14.3858 3.40003 14.2222 3.40003C10.0122 3.40003 7.77878 7.32561 7.70708 9.52428C7.57611 9.66848 7.45406 9.80535 7.35153 9.92717C7.12635 7.44148 6.26175 5.52331 5.62592 4.71637C5.58769 1.58837 3.79719 0 0.296471 0C0.132618 0 0.000189326 0.126936 0.000189326 0.283322C0.000189326 3.43287 1.74593 5.049 5.18294 5.09545C6.02974 6.22283 7.65107 10.2309 6.27154 14.8583C5.9939 14.9946 5.77762 15.2334 5.68102 15.5351C5.67245 15.5632 5.63835 15.5833 5.60071 15.5833C5.55717 15.5833 5.52693 15.5442 5.51599 15.5275C5.35749 15.2838 5.0511 15.1039 4.70947 15.041C4.5868 14.5404 4.11601 14.1666 3.5557 14.1666C3.3548 14.1666 3.16283 14.2143 2.99186 14.3038C2.77082 14.0437 2.43481 13.8833 2.07423 13.8833C1.51187 13.8833 1.03986 14.2596 0.918998 14.7625C0.694105 14.8124 0.486121 14.9246 0.325533 15.0866C0.099459 15.3141 -0.015505 15.6128 0.00168234 15.927C0.0345639 16.5288 0.576467 17 1.23542 17H10.3704H14.8148C15.4682 17 16 16.4917 16 15.8667C16 15.3292 15.6065 14.8781 15.0809 14.7622ZM13.9123 3.97461C13.7413 5.86729 11.9654 8.91086 8.71269 9.30581C9.47949 8.51756 10.3233 7.71913 10.4955 7.58794C10.5761 7.54514 10.6348 7.46695 10.6463 7.37232C10.665 7.21706 10.5482 7.07652 10.3856 7.05869C10.2469 7.04394 10.1456 7.03319 8.57519 8.61531C8.51266 8.6782 8.45696 8.73601 8.39769 8.79664C8.83713 6.83005 10.7112 4.13894 13.9123 3.97461ZM5.14707 4.59624C5.01968 4.69456 5.00009 4.87306 5.10294 4.99488C5.10443 4.99687 5.10648 4.99943 5.10798 5.00139C4.15983 4.01144 2.5978 2.97981 2.58207 2.96932C2.44724 2.88064 2.41318 2.70439 2.50592 2.5752C2.59867 2.44657 2.78297 2.414 2.91807 2.50265C2.98442 2.54628 4.55923 3.5864 5.5521 4.62539C5.55419 4.62765 5.55478 4.63077 5.55686 4.63333C5.45255 4.51745 5.27211 4.50019 5.14707 4.59624ZM1.23542 16.4333C0.897644 16.4333 0.609661 16.1931 0.593342 15.8975C0.584766 15.74 0.64223 15.5907 0.755111 15.4768C0.868304 15.3629 1.02087 15.3 1.18531 15.3C1.34885 15.3 1.4816 15.173 1.4816 15.0166C1.4816 14.7041 1.74736 14.45 2.07419 14.45C2.31922 14.45 2.54176 14.5993 2.62738 14.822C2.66294 14.9143 2.7462 14.9823 2.84724 15.0016C2.94856 15.0217 3.05258 14.9889 3.12248 14.9166C3.23713 14.7985 3.39091 14.7333 3.55567 14.7333C3.88247 14.7333 4.14826 14.9874 4.14826 15.3C4.14826 15.4564 4.28069 15.5833 4.44455 15.5833C4.70114 15.5833 4.93492 15.7074 5.01312 15.827C5.14468 16.0293 5.36454 16.15 5.60068 16.15C5.89727 16.15 6.16335 15.9652 6.24779 15.7009C6.32452 15.4609 6.55237 15.3 6.8149 15.3H7.14941C7.14941 15.3 7.14972 15.3002 7.14972 15.3005C7.15003 15.3014 7.15031 15.3022 7.15063 15.3031C7.16899 15.3674 7.19538 15.4292 7.22587 15.4892C7.23507 15.5071 7.24542 15.5244 7.2558 15.5417C7.28128 15.5858 7.31031 15.6283 7.34232 15.6692C7.35507 15.6853 7.36691 15.7015 7.38055 15.717C7.42736 15.7703 7.47774 15.8213 7.53552 15.8675C7.60753 15.925 7.69819 15.9564 7.79003 15.9349C7.88128 15.914 7.95152 15.8627 7.98825 15.7799C8.00009 15.7609 8.01905 15.7218 8.02558 15.7009C8.10231 15.4609 8.33016 15.2999 8.59269 15.2999C8.91949 15.2999 9.18529 15.5541 9.18529 15.8666C9.18529 16.023 9.31772 16.1499 9.48157 16.1499C9.53077 16.1499 9.57817 16.1576 9.62407 16.1684C9.6374 16.1717 9.65014 16.176 9.66317 16.18C9.69636 16.1905 9.72834 16.2035 9.75886 16.2191C9.77011 16.2248 9.78198 16.2302 9.79292 16.2367C9.83202 16.2599 9.86907 16.2862 9.90136 16.3174C9.90226 16.3183 9.90313 16.3197 9.90431 16.3208C9.93511 16.3508 9.96149 16.3851 9.98462 16.4211C9.98729 16.4251 9.98906 16.4293 9.99143 16.4333H1.23542V16.4333Z" fill="#fff"/>
</svg>