<svg xmlns="http://www.w3.org/2000/svg" width="16" height="17" viewBox="0 0 16 17" fill="none">
  <path d="M15.9822 8.49759C15.9878 8.29558 16.0379 5.40818 14.4297 3.52857C14.3582 3.36056 14.0193 2.68341 12.9254 1.8558C12.4405 1.45614 11.9254 1.09955 11.3854 0.789637L11.3833 0.788504C11.315 0.749688 9.98119 0 8.36227 0C8.23934 0 8.11774 0.0076499 7.99747 0.0164331V0.0141664C6.76308 -0.0144498 5.53696 0.322995 4.79803 0.677439C4.14257 0.991933 3.41484 1.51921 3.36231 1.56001C2.45458 2.09947 0.733262 4.26438 0.596996 5.41158C0.0468673 6.15871 -0.412862 9.51474 0.598063 11.559C1.30686 14.3999 3.9751 15.8216 4.18737 15.9307C4.31643 16.0183 5.77056 16.9734 7.55694 16.9734C7.63188 16.9734 8.08494 17 8.24654 17C10.1775 17 13.0388 15.5539 13.6377 14.4211C15.2833 13.1422 16.1363 9.84624 15.9822 8.49759ZM4.20204 12.7654C3.43697 11.4504 3.00098 9.73234 2.90765 9.33766C3.14978 8.95205 4.34417 7.08095 5.0247 6.51797C5.41003 6.59334 7.01908 6.90727 8.53667 7.1991C8.72733 7.7241 9.56386 10.0406 9.80333 10.9348C9.53933 11.2674 8.50227 12.5503 7.48121 13.555C6.39722 13.5604 4.5535 12.896 4.20204 12.7654ZM13.8196 3.56427C13.8164 3.69177 13.7878 4.1451 13.5836 4.66557C13.178 4.44543 12.1585 3.97397 10.7612 3.89435C10.5497 3.56257 9.75399 2.40574 8.4972 1.60336C8.6692 1.2458 8.90867 0.809753 9.04866 0.676872C9.094 0.663272 9.1644 0.650806 9.2716 0.650806C9.94546 0.650806 11.1097 1.11971 11.211 1.16136C11.3185 1.22171 13.4113 2.41906 13.8196 3.56427ZM2.60605 9.06992C1.69325 8.90445 1.15059 8.60299 0.98846 8.50099C0.648996 7.19286 0.922327 5.77905 0.96446 5.57647C1.29939 4.94012 2.25298 3.31806 2.88205 3.01008C3.53404 2.8687 4.3471 3.04437 4.6783 3.13021C4.6471 3.58779 4.5871 4.86617 4.76523 6.20773C4.04364 6.82482 2.90151 8.60101 2.60605 9.06992ZM7.91587 0.433493C8.12067 0.449643 8.4212 0.497242 8.62707 0.562124C8.42174 0.852252 8.21134 1.28235 8.11187 1.49484C7.69321 1.56766 6.10309 1.89065 4.85563 2.74999C4.60417 2.67916 3.8447 2.49018 3.12551 2.55534C3.30364 2.189 3.56977 1.91813 3.59831 1.89037C3.69724 1.815 5.60176 0.39921 7.91587 0.42981V0.433493ZM13.0081 11.2263C12.6961 11.2127 11.494 11.1399 10.1759 10.811C9.92332 9.87542 9.08946 7.56856 8.8988 7.04383C9.50544 6.12512 10.1213 5.21332 10.7463 4.30858C12.263 4.39698 13.3281 4.98488 13.5342 5.10757C14.4129 6.60892 14.6057 8.1423 14.6321 8.39843C14.1654 9.94143 13.2425 10.9804 13.0081 11.2263ZM0.441264 7.51359C0.463664 7.87229 0.517797 8.24996 0.615663 8.62339C0.527678 8.86537 0.466642 9.11745 0.433798 9.37449C0.378106 8.75547 0.380607 8.13209 0.441264 7.51359ZM3.01298 14.1319C3.41511 13.7202 3.91084 13.3196 4.1031 13.1683C4.53777 13.3309 6.32282 13.9721 7.46068 13.9721C7.65454 14.2483 8.2884 15.1133 9.06546 15.7746C8.58173 16.2775 7.88307 16.5149 7.75961 16.5543C5.59243 16.6161 3.48177 15.3218 3.01298 14.1319ZM8.7364 16.5509C8.98227 16.3988 9.23853 16.1985 9.45053 15.9449C9.79639 15.8942 11.2806 15.6227 12.622 14.5758C12.7105 14.586 12.8564 14.5985 13.0193 14.5937C12.2145 15.4315 10.2508 16.3673 8.7364 16.5509ZM12.8494 14.1778C13.3313 12.8439 13.3108 11.838 13.287 11.5167C13.5516 11.2413 14.4593 10.2137 14.963 8.65144C15.2345 8.6996 15.411 8.77299 15.4947 8.81407C15.5238 8.9274 15.5723 9.1892 15.5449 9.58614C15.3395 11.015 14.6308 13.1561 13.3892 14.1027C13.2644 14.1704 13.0446 14.1851 12.8494 14.1778Z" fill="#fff"/>
</svg>