<svg xmlns="http://www.w3.org/2000/svg" width="17" height="17" viewBox="0 0 17 17" fill="none">
  <path d="M16.2517 13.9593C16.2708 13.9432 16.2884 13.9266 16.3052 13.9097C16.3061 13.9088 16.3069 13.9079 16.3078 13.907C16.4515 13.7613 16.5098 13.5892 16.4983 13.4227V3.54205C16.4983 3.15085 16.1213 2.83373 15.6563 2.83373H13.1302V0.708793C13.1302 0.232238 12.5821 -0.108361 12.0406 0.0318144L1.09439 2.86507C0.741093 2.95651 0.5 3.23112 0.5 3.54205V13.4584V14.8751C0.5 16.0489 1.6306 17 3.02605 17H15.6563C16.4065 17 16.7821 16.237 16.2517 15.7908C15.4581 15.1233 15.4581 14.6268 16.2517 13.9593ZM14.8142 4.25036V12.7501H6.94171L12.5358 11.3022C12.8891 11.2107 13.1302 10.9361 13.1302 10.6252V4.25036H14.8142ZM11.4462 1.66782V3.54205V10.102L2.18399 12.4994V4.06519L11.4462 1.66782ZM14.1153 15.5834H3.02605C2.56064 15.5834 2.18403 15.2666 2.18403 14.8751C2.18403 14.4836 2.56064 14.1667 3.02605 14.1667H14.1153C13.9248 14.6362 13.9248 15.1139 14.1153 15.5834Z" fill="white"/>
  <path d="M4.0992 8.47269L9.99332 7.05607C10.3548 6.96919 10.604 6.69126 10.604 6.37501V3.54175C10.604 3.07115 10.0686 2.73141 9.5307 2.86069L3.63659 4.27732C3.27511 4.3642 3.02588 4.64213 3.02588 4.95838V7.79163C3.02584 8.26221 3.56131 8.60197 4.0992 8.47269ZM4.70987 5.49266L8.91995 4.48079V5.84073L4.70987 6.8526V5.49266Z" fill="white"/>
</svg>