<svg xmlns="http://www.w3.org/2000/svg" width="20" height="17" viewBox="0 0 20 17" fill="none">
  <path d="M10.4566 16.3774C10.9006 16.3774 11.2874 16.1173 12.1245 16.1173C12.9617 16.1173 13.1899 16.3774 13.8114 16.3774C14.75 16.3774 15.2447 15.8887 15.2447 15.077C15.2447 13.6899 14.0271 12.7599 12.1182 12.7599C11.1796 12.7599 10.7547 12.8702 10.2283 13.0357L9.54339 11.0969C8.86482 9.23692 7.78674 8.0232 6.25201 8.0232H5.50368C5.25634 8.0232 5.09145 7.8892 5.09145 7.5897C5.09145 7.10109 5.61782 6.98286 6.19494 6.98286C8.04673 6.98286 9.42291 8.25173 10.26 10.8053L10.6913 12.1215C11.1225 12.0111 11.5855 11.956 12.0548 11.956C12.4289 11.956 12.7714 11.9875 13.1329 12.0505C13.5134 11.6959 13.9574 11.3255 14.5978 10.9787C15.3081 11.5777 16.1135 11.9639 16.9633 11.9639C18.7137 11.9639 19.5 11.491 19.5 9.43396C19.5 6.95132 18.054 5.09134 16.1326 5.09922L14.4266 2.2856C13.469 0.740839 12.3338 0 11.2113 0C10.2854 0 8.90923 0.662032 8.90923 1.59202C8.90923 2.22256 9.93659 3.10524 10.7293 3.71212L14.3822 6.48633C14.0968 6.82525 13.8368 7.00652 13.526 7.00652C13.0315 7.00652 12.524 6.6361 11.7567 6.08441C9.79707 4.68154 8.29407 3.36536 6.2647 3.36536C4.15289 3.36536 2.5484 4.87065 1.69225 7.80251C1.01368 7.80251 0.5 8.35424 0.5 9.166C0.5 10.0802 1.08344 10.6556 1.88252 10.6556C2.80843 12.2634 4.32412 12.9096 6.11884 12.9096C6.21398 12.9096 6.30908 12.9017 6.40422 12.9017L8.97264 15.5499C9.60684 16.267 9.97466 16.3774 10.4566 16.3774ZM16.8175 9.05565C16.5321 9.05565 16.3038 8.75615 16.3038 8.40939C16.3038 8.05474 16.5385 7.73947 16.8238 7.73947C17.1155 7.73947 17.3375 8.0232 17.3375 8.37785C17.3375 8.7325 17.1028 9.05565 16.8175 9.05565ZM5.8715 17C7.09548 17 7.83746 16.7084 8.44628 16.1882L6.48666 14.1549C6.39787 14.1628 6.29008 14.1785 6.15688 14.1785C5.83978 14.1785 5.37051 14.0603 4.81242 14.0603C4.10213 14.0603 3.66455 14.5332 3.66455 15.2425C3.66455 16.2986 4.52705 17 5.8715 17Z" fill="#fff"/>
</svg>