<svg xmlns="http://www.w3.org/2000/svg" width="18" height="17" viewBox="0 0 18 17" fill="none">
  <path d="M16.9673 5.01385L16.5853 4.63167L16.7271 4.48977C17.4344 3.78237 17.4344 2.63076 16.7271 1.92276L15.319 0.514515C14.6336 -0.170897 13.4389 -0.172112 12.7536 0.514515L12.6119 0.656287L12.5218 0.566145C11.834 -0.121636 10.6346 -0.122243 9.94623 0.566145L9.28696 1.22605C8.94308 1.57009 8.75336 2.02772 8.75336 2.51444C8.75336 3.00117 8.94308 3.4588 9.28696 3.80284L10.3495 4.86595L5.37636 9.84156L4.26751 8.73217C3.55724 8.02155 2.40225 8.02155 1.69198 8.73217L1.0327 9.39177C0.322432 10.1024 0.322432 11.2582 1.0327 11.9689L1.41471 12.3511L1.27288 12.4929C0.565584 13.2003 0.565584 14.352 1.27288 15.06L2.68098 16.4682C3.0237 16.8111 3.47904 17 3.96401 17C4.44844 17 4.90378 16.8111 5.24644 16.4682L5.38814 16.3264L5.47824 16.4166C5.82211 16.7606 6.27921 16.9501 6.766 16.9501C7.25219 16.9501 7.7099 16.7606 8.05377 16.4166L8.71304 15.7567C9.05692 15.4126 9.24664 14.955 9.24664 14.4683C9.24664 13.9816 9.05692 13.5239 8.71304 13.1799L7.65046 12.1168L12.6236 7.14116L13.7325 8.25055C14.0877 8.60589 14.5536 8.7835 15.0203 8.7835C15.4869 8.7835 15.9529 8.60583 16.308 8.25055L16.9673 7.59095C17.6776 6.88033 17.6776 5.72447 16.9673 5.01385ZM13.6121 1.37347C13.8386 1.14568 14.234 1.14629 14.4605 1.37347L15.8686 2.78171C16.1023 3.01575 16.1023 3.39684 15.8686 3.63082L15.7268 3.77271L13.4704 1.51518L13.6121 1.37347ZM4.38791 15.6093C4.16084 15.8368 3.76536 15.8356 3.53945 15.6093L2.13135 14.2011C1.89773 13.967 1.89773 13.5859 2.13135 13.352L2.27318 13.2101L4.52961 15.4676L4.38791 15.6093ZM8.0324 14.4683C8.0324 14.6306 7.96956 14.783 7.85451 14.8975L7.19524 15.5574C6.96635 15.7878 6.56559 15.7869 6.33671 15.5577L1.89118 11.11C1.65464 10.873 1.65464 10.4877 1.89118 10.2507L2.55045 9.59112C2.66902 9.4728 2.82438 9.41345 2.97968 9.41345C3.13499 9.41345 3.29035 9.4728 3.40892 9.59112L7.85445 14.0391C7.9695 14.1536 8.0324 14.3062 8.0324 14.4683ZM6.79193 11.2579L6.23489 10.7006L11.2081 5.72496L11.7651 6.28227L6.79193 11.2579ZM16.1088 6.73206L15.4495 7.39166C15.2123 7.62831 14.8282 7.62831 14.591 7.39166L10.1454 2.94365C10.0304 2.82915 9.96754 2.67669 9.96754 2.5145C9.96754 2.35232 10.0304 2.1998 10.1454 2.08536L10.8047 1.42546C10.9191 1.31066 11.0721 1.24749 11.2339 1.24749C11.3964 1.24749 11.5488 1.31036 11.6632 1.42516L16.1087 5.87287C16.3452 6.10982 16.3453 6.49505 16.1088 6.73206Z" fill="#fff"/>
  <path d="M16.1088 6.73206L15.4495 7.39166C15.2123 7.62831 14.8282 7.62831 14.591 7.39166L10.1454 2.94365C10.0304 2.82915 9.96754 2.67669 9.96754 2.5145C9.96754 2.35232 10.0304 2.1998 10.1454 2.08536L10.8047 1.42546C10.9191 1.31066 11.0721 1.24749 11.2339 1.24749C11.3964 1.24749 11.5488 1.31036 11.6632 1.42516L16.1087 5.87287C16.3452 6.10982 16.3453 6.49505 16.1088 6.73206Z" fill="#fff"/>
  <path d="M8.0324 14.4683C8.0324 14.6306 7.96956 14.783 7.85451 14.8975L7.19524 15.5574C6.96635 15.7878 6.56559 15.7869 6.33671 15.5577L1.89118 11.11C1.65464 10.873 1.65464 10.4877 1.89118 10.2507L2.55045 9.59112C2.66902 9.4728 2.82438 9.41345 2.97968 9.41345C3.13499 9.41345 3.29035 9.4728 3.40892 9.59112L7.85445 14.0391C7.9695 14.1536 8.0324 14.3062 8.0324 14.4683Z" fill="#fff"/>
</svg>