<svg xmlns="http://www.w3.org/2000/svg" width="18" height="17" viewBox="0 0 18 17" fill="none">
  <path fill-rule="evenodd" clip-rule="evenodd" d="M9 14C11.4853 14 13.5 11.9853 13.5 9.5C13.5 7.01474 11.4853 5 9 5C6.51472 5 4.5 7.01474 4.5 9.5C4.5 11.9853 6.51472 14 9 14ZM9 12.2064C7.50528 12.2064 6.29361 10.9947 6.29361 9.5C6.29361 8.00528 7.50528 6.79361 9 6.79361C10.4947 6.79361 11.7064 8.00528 11.7064 9.5C11.7064 10.9947 10.4947 12.2064 9 12.2064Z" fill="#fff"/>
  <path fill-rule="evenodd" clip-rule="evenodd" d="M7.0049 0C5.8786 0 4.89682 0.796356 4.62364 1.93153L4.27027 3.4H2.45455C1.09894 3.4 0 4.54168 0 5.95V14.45C0 15.8584 1.09894 17 2.45455 17H15.5455C16.9011 17 18 15.8584 18 14.45V5.95C18 4.54168 16.9011 3.4 15.5455 3.4H13.7297L13.3764 1.93153C13.1032 0.796356 12.1214 0 10.9951 0H7.0049ZM6.21115 2.34384C6.30221 1.96546 6.62947 1.7 7.0049 1.7H10.9951C11.3705 1.7 11.6978 1.96546 11.7889 2.34384L12.1422 3.81231C12.3244 4.5691 12.9788 5.1 13.7297 5.1H15.5455C15.9973 5.1 16.3636 5.48056 16.3636 5.95V14.45C16.3636 14.9195 15.9973 15.3 15.5455 15.3H2.45455C2.00268 15.3 1.63636 14.9195 1.63636 14.45V5.95C1.63636 5.48056 2.00268 5.1 2.45455 5.1H4.27027C5.02115 5.1 5.67566 4.5691 5.85778 3.81231L6.21115 2.34384Z" fill="#fff"/>
</svg>