<svg xmlns="http://www.w3.org/2000/svg" width="19" height="17" viewBox="0 0 19 17" fill="none">
  <path d="M17.8125 14.0308H17.2188V13.4904C17.2188 13.1683 17.0936 12.8594 16.8709 12.6316C16.6482 12.4039 16.3462 12.276 16.0312 12.276H15.4375V7.35153H16.0312C16.3462 7.35153 16.6482 7.22358 16.8709 6.99583C17.0936 6.76809 17.2188 6.4592 17.2188 6.13712V5.59671H18.4062C18.5403 5.5959 18.6702 5.5487 18.7748 5.46278C18.8793 5.37687 18.9523 5.2573 18.9819 5.12354C19.0115 4.98979 18.9959 4.84972 18.9378 4.72615C18.8796 4.60258 18.7823 4.50279 18.6616 4.44302L9.75531 0.0590027C9.67556 0.0201573 9.58834 0 9.5 0C9.41166 0 9.32444 0.0201573 9.24469 0.0590027L0.338437 4.44302C0.217745 4.50279 0.120392 4.60258 0.0622301 4.72615C0.00406766 4.84972 -0.0114789 4.98979 0.0181215 5.12354C0.0477219 5.2573 0.120726 5.37687 0.225247 5.46278C0.329769 5.5487 0.459652 5.5959 0.59375 5.59671H1.78125V6.13712C1.78125 6.4592 1.90636 6.76809 2.12906 6.99583C2.35176 7.22358 2.65381 7.35153 2.96875 7.35153H3.5625V12.276H2.96875C2.65381 12.276 2.35176 12.4039 2.12906 12.6316C1.90636 12.8594 1.78125 13.1683 1.78125 13.4904V14.0308H1.1875C0.872555 14.0308 0.57051 14.1587 0.347811 14.3865C0.125111 14.6142 0 14.9231 0 15.2452L0 16.3928C0 16.5538 0.0625556 16.7083 0.173905 16.8222C0.285255 16.936 0.436278 17 0.59375 17H18.4062C18.5637 17 18.7147 16.936 18.8261 16.8222C18.9374 16.7083 19 16.5538 19 16.3928V15.2452C19 14.9231 18.8749 14.6142 18.6522 14.3865C18.4295 14.1587 18.1274 14.0308 17.8125 14.0308ZM9.5 1.27948L15.8056 4.3823H3.19438L9.5 1.27948ZM2.96875 6.13712V5.59671H16.0312V6.13712H2.96875ZM14.25 7.35153V12.276H12.7656V7.35153H14.25ZM11.5781 7.35153V12.276H10.0938V7.35153H11.5781ZM8.90625 7.35153V12.276H7.42188V7.35153H8.90625ZM6.23438 7.35153V12.276H4.75V7.35153H6.23438ZM2.96875 13.4904H16.0312V14.0308H2.96875V13.4904ZM17.8125 15.7856H1.1875V15.2452H17.8125V15.7856Z" fill="#fff"/>
</svg>