<svg xmlns="http://www.w3.org/2000/svg" width="19" height="17" viewBox="0 0 19 17" fill="none">
  <path d="M6.6484 10.2003C7.39979 10.2003 8.13431 10.001 8.75906 9.62738C9.38382 9.2538 9.87076 8.72282 10.1583 8.10158C10.4458 7.48034 10.5211 6.79675 10.3745 6.13725C10.2279 5.47775 9.86608 4.87196 9.33476 4.39648C8.80345 3.92101 8.12652 3.59721 7.38957 3.46603C6.65262 3.33484 5.88875 3.40217 5.19456 3.6595C4.50036 3.91682 3.90703 4.35258 3.48958 4.91168C3.07213 5.47078 2.84932 6.1281 2.84932 6.80052C2.84932 7.70221 3.24958 8.56697 3.96204 9.20456C4.67451 9.84216 5.64082 10.2003 6.6484 10.2003ZM6.6484 5.10061C7.0241 5.10061 7.39135 5.20031 7.70373 5.3871C8.01611 5.57389 8.25958 5.83938 8.40335 6.15C8.54712 6.46061 8.58474 6.80241 8.51145 7.13216C8.43815 7.46191 8.25724 7.76481 7.99158 8.00254C7.72593 8.24028 7.38746 8.40218 7.01899 8.46777C6.65051 8.53337 6.26858 8.4997 5.92148 8.37104C5.57438 8.24238 5.27771 8.02449 5.06899 7.74495C4.86027 7.4654 4.74886 7.13674 4.74886 6.80052C4.74886 6.34968 4.94899 5.9173 5.30522 5.59851C5.66146 5.27971 6.14461 5.10061 6.6484 5.10061ZM3.79909 11.0503H9.49772C10.5053 11.0503 11.4716 11.4085 12.1841 12.0461C12.8965 12.6837 13.2968 13.5484 13.2968 14.4501V16.15C13.2968 16.3755 13.1967 16.5917 13.0186 16.7511C12.8405 16.9105 12.5989 17 12.347 17C12.0951 17 11.8536 16.9105 11.6754 16.7511C11.4973 16.5917 11.3973 16.3755 11.3973 16.15V14.4501C11.3973 13.9993 11.1971 13.5669 10.8409 13.2481C10.4847 12.9293 10.0015 12.7502 9.49772 12.7502H3.79909C3.2953 12.7502 2.81214 12.9293 2.45591 13.2481C2.09967 13.5669 1.89954 13.9993 1.89954 14.4501V16.15C1.89954 16.3755 1.79948 16.5917 1.62136 16.7511C1.44325 16.9105 1.20167 17 0.949772 17C0.697877 17 0.456298 16.9105 0.278182 16.7511C0.100065 16.5917 0 16.3755 0 16.15V14.4501C0 13.5484 0.40026 12.6837 1.11273 12.0461C1.82519 11.4085 2.79151 11.0503 3.79909 11.0503ZM14.6854 6.80052C14.6873 7.47215 14.5404 8.13744 14.2531 8.75793C13.9659 9.37841 13.544 9.94176 13.0119 10.4154C12.8327 10.5702 12.5928 10.6559 12.3438 10.6539C12.0948 10.652 11.8566 10.5626 11.6805 10.405C11.5044 10.2474 11.4045 10.0343 11.4023 9.81141C11.4002 9.58856 11.4959 9.37385 11.6689 9.21355C12.384 8.57357 12.7858 7.70558 12.7858 6.80052C12.7858 5.89547 12.384 5.02748 11.6689 4.3875C11.5782 4.30909 11.5058 4.2153 11.4561 4.11161C11.4063 4.00791 11.3801 3.89638 11.379 3.78352C11.3779 3.67066 11.4019 3.55874 11.4497 3.45429C11.4974 3.34983 11.5679 3.25493 11.6571 3.17513C11.7463 3.09532 11.8523 3.03221 11.9691 2.98947C12.0858 2.94674 12.2109 2.92523 12.337 2.92621C12.4631 2.92719 12.5877 2.95064 12.7036 2.99518C12.8195 3.03973 12.9243 3.10448 13.0119 3.18566C13.544 3.65929 13.9659 4.22264 14.2531 4.84312C14.5404 5.46361 14.6873 6.1289 14.6854 6.80052ZM14.5135 13.3452C14.3384 13.1831 14.2424 12.9654 14.2467 12.74C14.251 12.5147 14.3551 12.3 14.5363 12.1433C15.345 11.4552 15.9889 10.6271 16.4289 9.70938C16.8689 8.79164 17.0958 7.80342 17.0958 6.80477C17.0958 5.80613 16.8689 4.81791 16.4289 3.90017C15.9889 2.98242 15.345 2.15433 14.5363 1.4662C14.3545 1.30897 14.25 1.09356 14.2457 0.867379C14.2415 0.641194 14.3378 0.422753 14.5135 0.260111C14.6892 0.0974684 14.9299 0.00394768 15.1826 0.000122128C15.4354 -0.00370342 15.6794 0.0824794 15.8612 0.239712C16.8531 1.08638 17.6428 2.10439 18.1823 3.23211C18.7218 4.35983 19 5.5738 19 6.80052C19 8.02725 18.7218 9.24122 18.1823 10.3689C17.6428 11.4967 16.8531 12.5147 15.8612 13.3613C15.6801 13.518 15.4368 13.6039 15.185 13.6C14.9331 13.5962 14.6933 13.503 14.5182 13.3409L14.5135 13.3452Z" fill="#fff"/>
</svg>