<svg xmlns="http://www.w3.org/2000/svg" width="531" height="548" viewBox="0 0 531 548" fill="none">
  <g opacity="0.1">
    <mask id="path-1-inside-1_434_16" fill="white">
      <path fill-rule="evenodd" clip-rule="evenodd" d="M481 246.333C481 137.076 395.67 50 292.222 50C188.774 50 103.444 137.076 103.444 246.333C103.444 246.68 103.445 247.027 103.447 247.373C103.716 301.437 124.959 350.162 158.994 385.424C159.181 385.617 159.368 385.81 159.556 386.003C193.776 421.115 240.757 442.667 292.222 442.667C395.67 442.667 481 355.591 481 246.333ZM291.643 492.666C291.48 492.666 291.317 492.665 291.154 492.664C234.436 492.409 182.626 471.85 141.956 437.804L42.9898 540.36C33.4021 550.295 17.5755 550.577 7.64008 540.99C-2.29538 531.402 -2.57733 515.575 7.01035 505.64L107.094 401.926C73.5175 359.451 53.4445 305.242 53.4445 246.333C53.4445 111.113 159.537 0 292.222 0C424.907 0 531 111.113 531 246.333C531 381.555 424.907 492.667 292.222 492.667C292.029 492.667 291.836 492.666 291.643 492.666ZM348.741 181.771C348.744 181.61 348.747 181.449 348.744 181.287C348.08 133.797 313.648 96.8102 271.838 98.6753C230.029 100.541 196.675 140.551 197.34 188.041C197.342 188.197 197.349 188.351 197.356 188.506C197.362 188.635 197.368 188.765 197.371 188.896L196.938 188.915L199.345 360.893L349.733 354.184L350.75 354.139L350.75 354.109C392.145 351.638 424.886 311.853 424.231 264.818C423.571 217.959 389.996 181.209 348.737 182.184C348.736 182.046 348.739 181.908 348.741 181.771Z"/>
    </mask>
    <path fill-rule="evenodd" clip-rule="evenodd" d="M481 246.333C481 137.076 395.67 50 292.222 50C188.774 50 103.444 137.076 103.444 246.333C103.444 246.68 103.445 247.027 103.447 247.373C103.716 301.437 124.959 350.162 158.994 385.424C159.181 385.617 159.368 385.81 159.556 386.003C193.776 421.115 240.757 442.667 292.222 442.667C395.67 442.667 481 355.591 481 246.333ZM291.643 492.666C291.48 492.666 291.317 492.665 291.154 492.664C234.436 492.409 182.626 471.85 141.956 437.804L42.9898 540.36C33.4021 550.295 17.5755 550.577 7.64008 540.99C-2.29538 531.402 -2.57733 515.575 7.01035 505.64L107.094 401.926C73.5175 359.451 53.4445 305.242 53.4445 246.333C53.4445 111.113 159.537 0 292.222 0C424.907 0 531 111.113 531 246.333C531 381.555 424.907 492.667 292.222 492.667C292.029 492.667 291.836 492.666 291.643 492.666ZM348.741 181.771C348.744 181.61 348.747 181.449 348.744 181.287C348.08 133.797 313.648 96.8102 271.838 98.6753C230.029 100.541 196.675 140.551 197.34 188.041C197.342 188.197 197.349 188.351 197.356 188.506C197.362 188.635 197.368 188.765 197.371 188.896L196.938 188.915L199.345 360.893L349.733 354.184L350.75 354.139L350.75 354.109C392.145 351.638 424.886 311.853 424.231 264.818C423.571 217.959 389.996 181.209 348.737 182.184C348.736 182.046 348.739 181.908 348.741 181.771Z" fill="#DF1463"/>
    <path d="M103.447 247.373L78.4473 247.496L78.4473 247.497L103.447 247.373ZM158.994 385.424L141.007 402.786L141.007 402.786L158.994 385.424ZM159.556 386.003L141.64 403.439L141.646 403.445L141.652 403.452L159.556 386.003ZM291.154 492.664L291.041 517.664L291.042 517.664L291.154 492.664ZM291.643 492.666L291.706 467.666L291.704 467.666L291.643 492.666ZM141.956 437.804L158.003 418.634L140.141 403.682L123.966 420.444L141.956 437.804ZM42.9898 540.36L25.0001 523L25.0001 523L42.9898 540.36ZM7.64008 540.99L25.0001 523L25.0001 523L7.64008 540.99ZM7.01035 505.64L25.0001 523L25.0001 523L7.01035 505.64ZM107.094 401.926L125.084 419.286L140.256 403.563L126.706 386.423L107.094 401.926ZM348.744 181.287L373.742 180.948L373.742 180.937L348.744 181.287ZM348.741 181.771L323.745 181.339L323.745 181.344L348.741 181.771ZM271.838 98.6753L270.724 73.7002L270.724 73.7002L271.838 98.6753ZM197.34 188.041L222.338 187.713L222.338 187.702L222.338 187.691L197.34 188.041ZM197.356 188.506L222.331 187.375L222.331 187.374L197.356 188.506ZM197.371 188.896L198.483 213.871L222.913 212.783L222.365 188.336L197.371 188.896ZM196.938 188.915L195.825 163.94L171.601 165.019L171.94 189.265L196.938 188.915ZM199.345 360.893L174.348 361.243L174.709 387.017L200.46 385.868L199.345 360.893ZM349.733 354.184L350.847 379.159L350.849 379.159L349.733 354.184ZM350.75 354.139L351.866 379.114L376.175 378.028L375.746 353.698L350.75 354.139ZM350.75 354.109L349.26 329.154L325.331 330.582L325.753 354.55L350.75 354.109ZM424.231 264.818L449.229 264.47L449.229 264.466L424.231 264.818ZM348.737 182.184L323.737 182.317L323.872 207.779L349.328 207.177L348.737 182.184ZM292.222 75C381.083 75 456 150.09 456 246.333H506C506 124.062 410.257 25 292.222 25V75ZM128.444 246.333C128.444 150.09 203.361 75 292.222 75V25C174.187 25 78.4445 124.062 78.4445 246.333H128.444ZM128.447 247.25C128.445 246.944 128.444 246.639 128.444 246.333H78.4445C78.4445 246.721 78.4454 247.109 78.4473 247.496L128.447 247.25ZM176.982 368.062C147.322 337.332 128.683 294.745 128.447 247.249L78.4473 247.497C78.7491 308.129 102.597 362.991 141.007 402.786L176.982 368.062ZM177.472 368.567C177.308 368.399 177.145 368.23 176.981 368.061L141.007 402.786C141.217 403.004 141.428 403.221 141.64 403.439L177.472 368.567ZM292.222 417.667C247.909 417.667 207.269 399.14 177.459 368.554L141.652 403.452C180.284 443.09 233.605 467.667 292.222 467.667V417.667ZM456 246.333C456 342.577 381.083 417.667 292.222 417.667V467.667C410.257 467.667 506 368.606 506 246.333H456ZM291.042 517.664C291.223 517.665 291.404 517.665 291.582 517.666L291.704 467.666C291.556 467.666 291.41 467.665 291.266 467.664L291.042 517.664ZM125.908 456.974C170.823 494.572 228.206 517.381 291.041 517.664L291.266 467.664C240.665 467.437 194.43 449.128 158.003 418.634L125.908 456.974ZM60.9795 557.72L159.945 455.164L123.966 420.444L25.0001 523L60.9795 557.72ZM-9.71993 558.979C10.151 578.155 41.8042 577.591 60.9796 557.72L25.0001 523C24.9876 523.013 24.9802 523.019 24.9783 523.021C24.9762 523.023 24.9773 523.022 24.9814 523.019C24.9854 523.016 24.9906 523.013 24.9966 523.01C25.0025 523.006 25.008 523.004 25.0128 523.002C25.0223 522.998 25.0261 522.997 25.0228 522.998C25.0212 522.998 25.0182 522.999 25.0141 522.999C25.0099 523 25.0052 523 25.0001 523C24.9949 523 24.9902 523 24.986 523C24.9818 522.999 24.9789 522.999 24.9772 522.999C24.9739 522.998 24.9777 522.998 24.9874 523.002C24.9923 523.004 24.9979 523.006 25.0039 523.009C25.01 523.012 25.0153 523.016 25.0194 523.018C25.0236 523.021 25.0247 523.022 25.0226 523.02C25.0206 523.019 25.013 523.012 25.0001 523L-9.71993 558.979ZM-10.9794 488.28C-30.1547 508.151 -29.5908 539.804 -9.71991 558.979L25.0001 523C24.9872 522.988 24.9808 522.98 24.9791 522.978C24.9774 522.976 24.9785 522.977 24.9813 522.981C24.984 522.985 24.9873 522.991 24.9905 522.997C24.9938 523.002 24.9964 523.008 24.9985 523.013C25.0025 523.022 25.003 523.026 25.0023 523.023C25.002 523.021 25.0014 523.018 25.001 523.014C25.0005 523.01 25.0002 523.005 25.0001 523C25 522.995 25.0001 522.99 25.0005 522.986C25.0008 522.982 25.0012 522.979 25.0015 522.977C25.0021 522.974 25.0018 522.978 24.998 522.987C24.9962 522.992 24.9937 522.998 24.9907 523.004C24.9876 523.01 24.9845 523.015 24.982 523.019C24.9793 523.023 24.9783 523.025 24.9799 523.023C24.9815 523.02 24.9876 523.013 25.0001 523L-10.9794 488.28ZM89.1042 384.566L-10.9794 488.28L25.0001 523L125.084 419.286L89.1042 384.566ZM28.4445 246.333C28.4445 310.99 50.4918 370.636 87.4816 417.429L126.706 386.423C96.5433 348.265 78.4445 299.494 78.4445 246.333H28.4445ZM292.222 -25C144.893 -25 28.4445 98.1571 28.4445 246.333H78.4445C78.4445 124.068 174.18 25 292.222 25V-25ZM556 246.333C556 98.1571 439.55 -25 292.222 -25V25C410.263 25 506 124.068 506 246.333H556ZM292.222 517.667C439.55 517.667 556 394.51 556 246.333H506C506 368.599 410.263 467.667 292.222 467.667V517.667ZM291.58 517.666C291.794 517.666 292.008 517.667 292.222 517.667V467.667C292.05 467.667 291.878 467.666 291.706 467.666L291.58 517.666ZM323.747 181.626C323.744 181.457 323.745 181.335 323.746 181.291C323.746 181.268 323.746 181.258 323.746 181.267C323.746 181.279 323.746 181.295 323.745 181.339L373.737 182.202C373.739 182.104 373.75 181.559 373.742 180.948L323.747 181.626ZM272.953 123.65C297.658 122.548 323.235 145.042 323.747 181.637L373.742 180.937C372.925 122.551 329.637 71.0721 270.724 73.7002L272.953 123.65ZM222.338 187.691C221.821 150.78 247.387 124.791 272.953 123.65L270.724 73.7002C212.672 76.2901 171.53 130.322 172.343 188.391L222.338 187.691ZM222.331 187.374C222.329 187.332 222.328 187.318 222.328 187.31C222.328 187.304 222.328 187.319 222.329 187.346C222.331 187.398 222.336 187.531 222.338 187.713L172.342 188.369C172.351 188.992 172.378 189.545 172.382 189.637L222.331 187.374ZM222.365 188.336C222.354 187.873 222.335 187.459 222.331 187.375L172.382 189.636C172.383 189.671 172.384 189.686 172.385 189.698C172.385 189.707 172.385 189.702 172.384 189.688C172.383 189.661 172.38 189.576 172.377 189.456L222.365 188.336ZM198.05 213.89L198.483 213.871L196.259 163.921L195.825 163.94L198.05 213.89ZM224.343 360.543L221.935 188.565L171.94 189.265L174.348 361.243L224.343 360.543ZM348.619 329.209L198.231 335.918L200.46 385.868L350.847 379.159L348.619 329.209ZM349.634 329.164L348.617 329.209L350.849 379.159L351.866 379.114L349.634 329.164ZM325.753 354.55L325.754 354.579L375.746 353.698L375.746 353.669L325.753 354.55ZM399.234 265.166C399.742 301.692 374.642 327.639 349.26 329.154L352.239 379.065C409.649 375.638 450.03 322.013 449.229 264.47L399.234 265.166ZM349.328 207.177C373.758 206.6 398.725 229.086 399.234 265.17L449.229 264.466C448.417 206.833 406.233 155.818 348.146 157.191L349.328 207.177ZM323.745 181.344C323.743 181.436 323.735 181.852 323.737 182.317L373.737 182.052C373.737 182.165 373.736 182.243 373.736 182.264C373.736 182.275 373.736 182.278 373.736 182.266C373.736 182.252 373.737 182.235 373.737 182.198L323.745 181.344Z" fill="#FFA4B1" mask="url(#path-1-inside-1_434_16)"/>
  </g>
</svg>