<svg xmlns="http://www.w3.org/2000/svg" width="80" height="80" viewBox="0 0 80 80" fill="none">
  <rect width="80" height="80" rx="40" fill="url(#paint0_linear_430_3)"/>
  <path d="M28.853 51.1372L18 62M28.853 51.1372C25.2366 47.5184 23 42.5204 23 37M28.853 51.1372C32.4727 54.7594 37.4746 57 43 57M23 37C23 48.0458 31.9542 57 43 57M23 37C23 25.9543 31.9542 17 43 17C54.0457 17 63 25.9543 63 37C63 48.0458 54.0457 57 43 57" stroke="white" stroke-width="5" stroke-linecap="round" stroke-linejoin="round"/>
  <path d="M46.804 31.1922C46.8041 31.1936 46.8043 31.1958 46.8045 31.1993L46.8062 31.2231C46.807 31.2333 46.8081 31.2467 46.8096 31.2619L46.9092 32.2898L47.9334 32.1572C51.2667 31.7253 54.2087 34.0445 54.5662 37.3839L46.804 31.1922ZM46.804 31.1922L46.8036 31.1887C46.4378 27.8091 43.4276 25.4839 40.0568 25.9839C36.6534 26.4887 34.1821 29.6791 34.5447 33.0932C34.5449 33.0944 34.5451 33.096 34.5454 33.0982L34.5486 33.1209C34.55 33.1308 34.5518 33.144 34.5535 33.1591L34.6658 34.1219L34.6159 34.1293L35.9326 46.4442L48.9593 44.512L49.1369 44.4832C52.5047 43.938 54.9275 40.7667 54.5662 37.3841L46.804 31.1922Z" fill="#DF1463" stroke="white" stroke-width="2"/>
  <defs>
    <linearGradient id="paint0_linear_430_3" x1="80" y1="32.8571" x2="-2.56" y2="32.8571" gradientUnits="userSpaceOnUse">
      <stop stop-color="#FF5871"/>
      <stop offset="0.297487" stop-color="#FF657C"/>
      <stop offset="0.58168" stop-color="#FF6C82"/>
      <stop offset="1" stop-color="#FF7E91"/>
    </linearGradient>
  </defs>
</svg>