<svg xmlns="http://www.w3.org/2000/svg" width="15" height="8" viewBox="0 0 15 8" fill="none">
  <path fill-rule="evenodd" clip-rule="evenodd" d="M14.6828 0.0442407C14.9484 0.162908 15.0714 0.483563 14.9576 0.760446L14.4766 0.545584C14.9576 0.760445 14.9576 0.760322 14.9576 0.760446L14.9571 0.761667L14.9563 0.763478L14.9541 0.768831L14.9466 0.786336C14.9403 0.800983 14.9314 0.821499 14.9198 0.847455C14.8966 0.899345 14.8627 0.973031 14.8177 1.06496C14.7278 1.24871 14.5935 1.50606 14.4128 1.80845C14.1158 2.3052 13.69 2.92926 13.1245 3.54932L13.8001 4.25352C14.0044 4.46654 14.0044 4.81191 13.8001 5.02493C13.5958 5.23794 13.2645 5.23794 13.0601 5.02493L12.362 4.29723C11.9018 4.69919 11.374 5.07642 10.7755 5.38638L11.4269 6.42985C11.5845 6.68228 11.5159 7.02016 11.2737 7.18445C11.0314 7.34874 10.7073 7.27725 10.5497 7.02475L9.78979 5.80739C9.24609 5.99247 8.6574 6.11829 8.02315 6.16338V7.45456C8.02315 7.75579 7.78887 8 7.49989 8C7.21092 8 6.97664 7.75579 6.97664 7.45456V6.16338C6.36199 6.11967 5.79003 6.00018 5.26031 5.82433L4.51097 7.02482C4.35336 7.27732 4.02923 7.34881 3.78701 7.18453C3.54479 7.02024 3.4762 6.68235 3.6338 6.42985L4.27037 5.41008C3.66731 5.10304 3.1352 4.72748 2.67098 4.32603L2.00053 5.02493C1.79619 5.23794 1.46489 5.23794 1.26054 5.02493C1.0562 4.81191 1.0562 4.46661 1.26054 4.2536L1.90503 3.58175C1.32975 2.95653 0.896683 2.32487 0.594954 1.82168C0.411515 1.51578 0.275302 1.25513 0.184102 1.06899C0.138475 0.975853 0.104024 0.901178 0.0804913 0.84859C0.0687216 0.822292 0.0596728 0.801492 0.0533101 0.786656L0.0457821 0.768926L0.0435217 0.763507L0.0427613 0.761682C0.0427124 0.761551 0.0422519 0.760445 0.523198 0.545584L0.0427613 0.761682C-0.0710707 0.484792 0.0514612 0.162908 0.317079 0.0442407C0.582479 -0.0743244 0.889804 0.0536297 1.00387 0.330039C1.00382 0.329945 1.00391 0.330134 1.00387 0.330039L1.00453 0.331632L1.00877 0.34161C1.01288 0.351202 1.01958 0.366613 1.02887 0.387391C1.04748 0.428961 1.07648 0.491949 1.11611 0.572842C1.19543 0.734744 1.31694 0.967591 1.48236 1.24346C1.81418 1.79682 2.31736 2.51434 3.0039 3.17943C3.60801 3.76466 4.3483 4.30378 5.23368 4.65883C5.8996 4.92588 6.65257 5.09096 7.49989 5.09096C8.36619 5.09096 9.13391 4.91846 9.81093 4.64064C10.691 4.27956 11.4262 3.73695 12.0255 3.15063C12.7019 2.4888 13.1977 1.77841 13.5246 1.23154C13.6876 0.958893 13.8073 0.72905 13.8854 0.569344C13.9245 0.489556 13.953 0.427455 13.9713 0.386496C13.9805 0.366016 13.9871 0.350846 13.9912 0.341399L13.9953 0.331595C13.9952 0.331668 13.9953 0.33153 13.9953 0.331595M14.6828 0.0442407C14.4172 -0.0743899 14.1091 0.0548585 13.9953 0.331595L14.6828 0.0442407ZM1.00387 0.330039C1.00382 0.329945 1.00391 0.330134 1.00387 0.330039V0.330039Z" fill="#FF7C8F"/>
</svg>