<svg xmlns="http://www.w3.org/2000/svg" width="319" height="197" viewBox="0 0 319 197" fill="none">
  <path d="M318.743 121.78L300.939 32.5282C299.568 25.651 293.086 21.226 286.489 22.6537L9.73686 82.5546C3.13956 83.9823 -1.11389 90.7342 0.256833 97.6061L18.0607 186.858C19.4314 193.735 25.9188 198.16 32.5162 196.732L67.8779 189.081L91.4577 183.975L99.3786 182.258L124.151 176.896L196.382 161.267L224.618 155.153L226.067 154.842L252.807 149.055L309.268 136.831C315.865 135.404 320.114 128.652 318.743 121.78ZM309.054 135.763L252.775 147.943L226.025 153.736L225.099 153.937L196.444 160.139L124.083 175.801L99.2478 181.179L91.6146 182.831L67.9407 187.953L32.3016 195.67C26.2589 196.978 20.3417 192.934 19.0861 186.64L19.0652 186.52C10.8199 145.207 27.661 104.538 58.785 81.6772C69.4893 73.8081 81.8782 68.0534 95.5228 65.0998L286.698 23.7164C292.741 22.4085 298.658 26.4521 299.914 32.7462L317.723 121.998C318.978 128.292 315.096 134.456 309.054 135.763Z" fill="#FF7D90"/>
  <path d="M76.2629 23.7956C74.4165 16.7837 89.3087 10.7708 93.2194 16.4175C93.7632 15.6147 95.7728 15.1271 96.6949 15.3734C97.5974 15.6855 98.4316 16.181 99.149 16.8313C100.189 17.6636 101.267 18.5256 101.906 19.7224C102.549 20.9143 102.648 22.5396 101.783 23.5739C101.097 24.3965 99.0733 24.9284 98.0425 25.1451C97.3238 25.2978 96.7185 25.4209 96.1984 25.5096C95.7259 24.8006 95.5083 23.9409 95.5836 23.0814C94.8748 23.5795 94.4169 24.3816 94.3354 25.2682C94.3212 25.4505 100.147 47.7767 100.147 47.7767C99.4467 48.1917 98.7105 48.5363 97.9479 48.8061C96.4393 46.4045 95.2838 43.7816 94.5197 41.0242C94.3441 42.868 94.3663 44.7264 94.5859 46.5651C94.7027 47.5961 94.87 48.6203 95.0872 49.6335C88.1646 51.1899 77.7524 50.6777 73.2224 44.0582L73.2202 43.9759C73.2118 43.3539 72.7209 42.8567 72.1237 42.8654C71.6834 42.8719 71.2908 43.1557 71.1311 43.5831C71.0212 43.8752 70.92 44.128 70.8298 44.329C69.5106 39.4136 71.2176 33.7249 76.2629 23.7956Z" fill="#2F2E41"/>
  <path d="M124.151 176.896L99.3786 182.258L99.2478 181.179L95.5803 150.564C95.5803 150.564 93.723 167.338 91.6146 182.831C91.5623 183.212 91.51 183.594 91.4577 183.975L67.8779 189.081L67.9407 187.953L70.8496 136.183L73.2301 113.611C72.8481 118.347 74.2764 113.611 75.846 101.622C79.2885 100.483 106.536 99.9275 106.536 99.9275L121.164 127.208C121.164 127.208 121.263 128.21 121.441 129.949V129.954C121.917 134.57 122.932 156.461 124.083 175.801C124.104 176.166 124.13 176.531 124.151 176.896Z" fill="#2F2E41"/>
  <path d="M49.757 146.701C51.3493 145.559 51.7796 143.305 50.7276 141.616C50.6223 141.452 50.5042 141.298 50.3744 141.155L56.0259 129.6L51.406 124.55L45.3071 141.251C44.221 142.498 44.078 144.35 44.9588 145.762C45.999 147.394 48.1126 147.839 49.6797 146.756C49.7057 146.738 49.7315 146.719 49.757 146.701Z" fill="#FFB6B6"/>
  <path d="M155.486 119.185C153.572 118.901 152.224 117.082 152.444 115.081C152.468 114.886 152.508 114.694 152.563 114.505L142.564 106.779L144.542 100.115L157.141 112.241C158.647 112.854 159.567 114.446 159.381 116.119C159.148 118.063 157.445 119.441 155.579 119.198C155.548 119.194 155.517 119.19 155.486 119.185Z" fill="#FFB6B6"/>
  <path d="M87.8348 44.3864C94.5335 44.3864 99.9638 38.7302 99.9638 31.7528C99.9638 24.7755 94.5335 19.1193 87.8348 19.1193C81.1362 19.1193 75.7059 24.7755 75.7059 31.7528C75.7059 38.7302 81.1362 44.3864 87.8348 44.3864Z" fill="#FFB6B6"/>
  <path d="M203.869 130.259L203.779 130.379C203.779 130.379 204.127 128.526 203.869 130.259Z" fill="#2F2E41"/>
  <path d="M230.058 32.3103C237.639 32.3103 243.785 25.9087 243.785 18.012C243.785 10.1153 237.639 3.71373 230.058 3.71373C222.477 3.71373 216.331 10.1153 216.331 18.012C216.331 25.9087 222.477 32.3103 230.058 32.3103Z" fill="#FFB6B6"/>
  <path d="M213.622 15.5107C215.102 15.9892 216.529 16.2714 217.491 15.0069C218.454 13.7425 218.202 12.2967 219.634 11.6871C220.831 11.2689 222.135 11.3318 223.29 11.8634C223.498 11.944 223.701 12.0347 223.899 12.1254C224.011 12.0246 224.122 11.9289 224.243 11.8382C225.153 11.1642 226.276 10.8793 227.382 11.0423C226.574 11.4488 228.001 15.9243 227.574 16.746C227.97 16.9526 228.372 17.1591 228.778 17.3354C232.239 18.8103 234.073 14.6858 237.282 12.6845C235.695 17.0371 236.929 18.5886 239.255 22.5633L239.347 22.795C239.115 21.7523 242.157 20.5483 242.157 22.0596C242.023 23.6079 241.698 25.1318 241.189 26.5934C244.174 21.9134 245.934 16.4376 244.778 11.1833C244.531 10.0801 244.42 8.89623 243.748 7.99951C243.076 7.10787 241.838 6.58393 240.861 7.0877C240.491 1.86629 235.491 1.25207 230.478 1.63755C228.697 1.77455 227.629 -0.851471 226.216 0.286895C225.007 1.25915 224.054 2.53369 222.976 3.66716C221.897 4.80063 220.62 5.83334 219.111 6.11545C218.154 6.29178 217.075 6.18598 216.311 6.81571C215.426 7.54617 215.416 8.83076 215.421 10.065C216.287 10.0392 217.141 10.283 217.873 10.7652C216.977 10.7887 216.11 11.106 215.397 11.672C215.383 11.6808 215.37 11.6909 215.358 11.7022C215.097 13.7777 215.203 14.216 213.622 15.5107Z" fill="#2F2E41"/>
  <path d="M134.303 87.626H134.448L119.715 72.7332L108.202 59.9401C108.206 59.8062 108.209 59.7299 108.209 59.7299L107.858 59.5571C107.858 59.5571 96.2796 52.3988 95.8844 52.4385L94.1071 47.9033L79.2404 44.6185L76.2886 50.8074L70.5248 54.2832C69.1913 54.7479 67.9621 55.4892 66.9112 56.4623L66.3482 56.8018L66.3899 56.98C64.5045 58.9541 63.4231 61.6098 63.371 64.3938L57.6612 85.9138L57.6561 85.9912L47.206 134.325L54.5647 134.706L73.2279 83.6394C73.8536 83.4928 69.001 136.677 69.5656 136.499C77.4723 134.018 128.236 133.829 122.18 127.521C119.697 124.934 109.192 96.8555 108.596 87.626C108.516 86.3942 108.448 85.1513 108.39 83.9092C110.457 85.0123 112.465 86.2329 114.404 87.5654L147.163 111.171L152.394 105.768L134.303 87.626Z" fill="#DF1463"/>
  <path d="M69.643 24.7806C67.7966 17.7687 82.6888 11.7558 86.5995 17.4026C87.1433 16.5998 89.1529 16.1121 90.075 16.3584C90.9775 16.6706 91.8117 17.1661 92.5291 17.8163C93.5694 18.6487 94.6475 19.5106 95.2858 20.7074C95.9289 21.8993 96.0282 23.5247 95.1629 24.559C94.4772 25.3815 92.4534 25.9134 91.4226 26.1302C90.7039 26.2828 90.0986 26.406 89.5785 26.4946C89.106 25.7856 88.8884 24.9259 88.9637 24.0665C88.2549 24.5645 87.797 25.3667 87.7154 26.2533C87.7013 26.4355 93.5268 48.7618 93.5268 48.7618C92.8268 49.1767 92.0906 49.5214 91.328 49.7911C89.8194 47.3896 88.6639 44.7666 87.8998 42.0092C87.7242 43.853 87.7464 45.7115 87.966 47.5501C88.0828 48.5812 88.2501 49.6053 88.4672 50.6186C81.5447 52.175 71.1325 51.6628 66.6025 45.0432L66.6003 44.961C66.5919 44.339 66.101 43.8418 65.5038 43.8505C65.0635 43.8569 64.6709 44.1408 64.5112 44.5682C64.4013 44.8602 64.3001 45.113 64.2099 45.3141C62.8907 40.3987 64.5976 34.71 69.643 24.7806Z" fill="#2F2E41"/>
  <path d="M165.971 59.9788C165.953 59.9967 165.937 60.0155 165.919 60.0335C163.192 57.215 158.801 57.1902 156.045 59.9777C153.279 62.7762 153.185 67.3704 155.835 70.2884L155.833 70.2902L165.656 80.825L175.77 70.5933L175.742 70.5631C175.759 70.5463 175.777 70.5306 175.793 70.5135C178.586 67.6882 178.651 63.0394 175.939 60.1303C173.226 57.2212 168.763 57.1534 165.971 59.9788Z" fill="#DF1463"/>
  <path d="M252.807 149.055L226.067 154.842L226.025 153.736L225.952 151.758L225.099 153.937L224.618 155.153L196.382 161.267L196.444 160.139L197.004 149.905L205.019 123.927L247.324 120.221C247.324 120.227 247.329 120.227 247.329 120.232C251.022 127.257 252.456 137.594 252.775 147.943C252.791 148.314 252.801 148.684 252.807 149.055Z" fill="#2F2E41"/>
  <path d="M222.833 35.3366L238.419 33.9451L241.09 38.1196C241.09 38.1196 256.231 47.8602 256.676 49.7156C257.122 51.5709 246.879 120.219 247.325 120.219C247.77 120.219 234.411 128.104 218.38 129.496C202.349 130.887 201.866 130.385 201.866 130.385L208.583 113.261L210.141 91.6928L208.806 50.8752L220.829 41.5984L222.833 35.3366Z" fill="#DF1463"/>
  <path d="M267.034 142.007C266.756 140.542 266.818 139.133 267.148 137.975L263.648 124.19L269.994 122.647L272.861 136.797C273.589 137.736 274.162 139.014 274.441 140.48C275.077 143.828 273.935 146.883 271.89 147.305C269.845 147.727 267.671 145.355 267.034 142.007Z" fill="#FFB6B6"/>
  <path d="M247.569 48.4851C247.569 48.4851 255.515 45.0772 259.254 51.4061C262.993 57.7351 272.808 132.222 272.808 132.222L264.629 133.439L248.504 73.3141L247.569 48.4851Z" fill="#DF1463"/>
  <path d="M161.481 118.879C162.439 117.767 163.075 116.522 163.359 115.351L173.122 105.356L168.419 100.656L159.022 111.302C157.936 111.722 156.817 112.517 155.86 113.629C153.673 116.17 153.158 119.406 154.71 120.855C156.263 122.305 159.294 121.42 161.481 118.879Z" fill="#FFB6B6"/>
  <path d="M224.033 48.791C224.033 48.791 218.869 41.6373 212.553 45.0933C206.237 48.5493 161.309 107.395 161.309 107.395L167.747 112.789L211.067 69.6483L224.033 48.791Z" fill="#DF1463"/>
</svg>