<svg xmlns="http://www.w3.org/2000/svg" width="185" height="171" viewBox="0 0 185 171" fill="none">
  <g filter="url(#filter0_d_459_3)">
    <path d="M145.6 166H39.4001C27.009 166 20.8134 166 16.0805 163.779C11.9175 161.826 8.53276 158.709 6.41152 154.875C4 150.517 4 144.811 4 133.4V35.6C4 24.1889 4 18.4834 6.41152 14.125C8.53276 10.2911 11.9175 7.17412 16.0805 5.22077C20.8134 3 27.009 3 39.4001 3H145.6C157.991 3 164.187 3 168.92 5.22077C173.083 7.17412 176.468 10.2911 178.589 14.125C181 18.4834 181 24.189 181 35.6V133.4C181 144.811 181 150.517 178.589 154.875C176.468 158.709 173.083 161.826 168.92 163.779C164.187 166 157.991 166 145.6 166Z" stroke="#DF1463" stroke-width="3" stroke-linecap="round" stroke-linejoin="round"/>
    <path fill-rule="evenodd" clip-rule="evenodd" d="M92.4999 130.415C117.565 130.415 137.884 109.858 137.884 84.5C137.884 59.1415 117.565 38.5845 92.4999 38.5845C67.4346 38.5845 47.1152 59.1415 47.1152 84.5C47.1152 109.858 67.4346 130.415 92.4999 130.415ZM81.3745 64.6364C84.3251 61.9814 88.3269 60.4898 92.4997 60.4898C96.6724 60.4898 100.674 61.9814 103.625 64.6364C106.575 67.2914 108.233 70.8924 108.233 74.6471C108.233 78.4019 106.575 82.0029 103.625 84.6579C100.674 87.3129 96.6724 88.8045 92.4997 88.8045C88.3269 88.8045 84.3251 87.3129 81.3745 84.6579C78.424 82.0029 76.7663 78.4019 76.7663 74.6471C76.7663 70.8924 78.424 67.2914 81.3745 64.6364ZM76.012 65.0005C73.9374 67.8715 72.8331 71.2225 72.833 74.6471C72.8329 79.0342 74.6439 83.265 77.9144 86.5186C81.185 89.7721 85.682 91.8166 90.533 92.2553V99.4225H82.6663C82.1447 99.4225 81.6445 99.6089 81.2757 99.9408C80.9069 100.273 80.6997 100.723 80.6997 101.192C80.6997 101.661 80.9069 102.112 81.2757 102.443C81.6445 102.775 82.1447 102.962 82.6663 102.962H90.533V111.81C90.533 112.279 90.7402 112.73 91.109 113.061C91.4779 113.393 91.9781 113.58 92.4997 113.58C93.0213 113.58 93.5215 113.393 93.8903 113.061C94.2591 112.73 94.4663 112.279 94.4663 111.81V102.962H102.333C102.855 102.962 103.355 102.775 103.724 102.443C104.092 102.112 104.3 101.661 104.3 101.192C104.3 100.723 104.092 100.273 103.724 99.9408C103.355 99.6089 102.855 99.4225 102.333 99.4225H94.4663V92.2553C98.2531 91.9128 101.848 90.5891 104.815 88.4445C107.783 86.3 109.994 83.4268 111.183 80.1734C112.371 76.92 112.485 73.4263 111.511 70.1159C110.536 66.8054 108.515 63.8205 105.693 61.5232C102.87 59.2259 99.3675 57.7149 95.6095 57.1733C91.8516 56.6318 87.9997 57.0831 84.5211 58.4724C81.0426 59.8617 78.0867 62.1294 76.012 65.0005Z" fill="#DF1463"/>
  </g>
  <defs>
    <filter id="filter0_d_459_3" x="0.5" y="0.5" width="184" height="170" filterUnits="userSpaceOnUse" color-interpolation-filters="sRGB">
      <feFlood flood-opacity="0" result="BackgroundImageFix"/>
      <feColorMatrix in="SourceAlpha" type="matrix" values="0 0 0 0 0 0 0 0 0 0 0 0 0 0 0 0 0 0 127 0" result="hardAlpha"/>
      <feOffset dy="1"/>
      <feGaussianBlur stdDeviation="1"/>
      <feComposite in2="hardAlpha" operator="out"/>
      <feColorMatrix type="matrix" values="0 0 0 0 0 0 0 0 0 0 0 0 0 0 0 0 0 0 0.25 0"/>
      <feBlend mode="normal" in2="BackgroundImageFix" result="effect1_dropShadow_459_3"/>
      <feBlend mode="normal" in="SourceGraphic" in2="effect1_dropShadow_459_3" result="shape"/>
    </filter>
  </defs>
</svg>