<svg xmlns="http://www.w3.org/2000/svg" width="185" height="171" viewBox="0 0 185 171" fill="none">
  <g filter="url(#filter0_d_246_2010)">
    <path d="M145.6 166H39.4001C27.009 166 20.8134 166 16.0805 163.779C11.9175 161.826 8.53276 158.709 6.41152 154.875C4 150.517 4 144.811 4 133.4V35.6C4 24.1889 4 18.4834 6.41152 14.125C8.53276 10.2911 11.9175 7.17412 16.0805 5.22077C20.8134 3 27.009 3 39.4001 3H145.6C157.991 3 164.187 3 168.92 5.22077C173.083 7.17412 176.468 10.2911 178.589 14.125C181 18.4834 181 24.189 181 35.6V133.4C181 144.811 181 150.517 178.589 154.875C176.468 158.709 173.083 161.826 168.92 163.779C164.187 166 157.991 166 145.6 166Z" stroke="#3B66A0" stroke-width="3" stroke-linecap="round" stroke-linejoin="round"/>
    <path fill-rule="evenodd" clip-rule="evenodd" d="M92.4999 130.415C117.565 130.415 137.884 109.858 137.884 84.5C137.884 59.1415 117.565 38.5845 92.4999 38.5845C67.4346 38.5845 47.1152 59.1415 47.1152 84.5C47.1152 109.858 67.4346 130.415 92.4999 130.415ZM118.199 63.201C118.202 63.2181 118.205 63.2351 118.207 63.2525C118.214 63.3151 118.217 63.3779 118.217 63.4406V74.827C118.217 75.3304 118 75.8131 117.615 76.169C117.229 76.5249 116.705 76.7249 116.16 76.7249C115.614 76.7249 115.091 76.5249 114.705 76.169C114.319 75.8131 114.102 75.3304 114.102 74.827V68.0219L103.286 77.9992C106.626 81.7691 108.268 86.579 107.872 91.4342C107.476 96.2894 105.072 100.818 101.157 104.085C97.2428 107.351 92.1171 109.104 86.8404 108.982C81.5637 108.86 76.5396 106.872 72.8073 103.429C69.075 99.9866 66.9199 95.3522 66.7877 90.4848C66.6556 85.6174 68.5565 80.8894 72.0973 77.2785C75.6382 73.6676 80.5481 71.4501 85.8115 71.0847C91.075 70.7193 96.2894 72.2339 100.376 75.3152L111.193 65.3379H103.815C103.27 65.3379 102.746 65.1379 102.36 64.782C101.975 64.4261 101.758 63.9434 101.758 63.4401C101.758 62.9367 101.975 62.454 102.36 62.0981C102.746 61.7422 103.27 61.5422 103.815 61.5422H116.16C116.186 61.5422 116.212 61.545 116.238 61.5458C116.247 61.5461 116.256 61.5464 116.266 61.5467C116.297 61.5477 116.329 61.5487 116.361 61.5516C116.377 61.5531 116.394 61.5551 116.41 61.5573C116.433 61.5605 116.456 61.564 116.479 61.5673C116.488 61.5687 116.497 61.5698 116.507 61.571C116.524 61.5733 116.542 61.5755 116.559 61.5787C116.593 61.5847 116.625 61.5926 116.658 61.6005C116.665 61.6022 116.672 61.6039 116.679 61.6056C116.688 61.6078 116.697 61.6099 116.707 61.6119C116.723 61.6155 116.739 61.6191 116.755 61.6236C116.786 61.6323 116.816 61.6425 116.846 61.6528C116.853 61.6549 116.859 61.657 116.865 61.6591C116.892 61.6681 116.919 61.6762 116.946 61.6863C116.972 61.6965 116.998 61.7079 117.024 61.7194C117.03 61.7223 117.037 61.7251 117.043 61.728C117.051 61.7315 117.059 61.7349 117.067 61.7383C117.088 61.7472 117.108 61.756 117.129 61.766C117.152 61.7773 117.174 61.7898 117.196 61.8023C117.203 61.8063 117.21 61.8102 117.217 61.8142C117.225 61.8185 117.233 61.8227 117.24 61.827C117.261 61.8381 117.282 61.8492 117.302 61.8617C117.326 61.8764 117.348 61.8924 117.371 61.9084C117.378 61.9131 117.385 61.9179 117.392 61.9226C117.416 61.9392 117.44 61.9547 117.464 61.9724C117.511 62.0081 117.556 62.0461 117.599 62.0854C117.602 62.0874 117.604 62.0894 117.607 62.0913C117.609 62.0935 117.612 62.0956 117.615 62.098C117.619 62.1019 117.622 62.1063 117.627 62.1104C117.67 62.1509 117.711 62.1929 117.751 62.2368C117.771 62.2599 117.789 62.2842 117.808 62.308C117.829 62.3338 117.851 62.3592 117.87 62.3861C117.89 62.4136 117.908 62.4424 117.926 62.4706C117.942 62.4955 117.959 62.5198 117.974 62.5454C117.991 62.5742 118.005 62.6039 118.02 62.6333C118.034 62.66 118.048 62.6862 118.06 62.7135C118.07 62.7347 118.078 62.7563 118.086 62.7779C118.089 62.7854 118.092 62.793 118.095 62.8005C118.106 62.83 118.118 62.8589 118.128 62.8889C118.133 62.9017 118.136 62.9145 118.14 62.9274C118.144 62.9439 118.148 62.9605 118.153 62.9771C118.161 63.0076 118.171 63.0379 118.177 63.0689C118.183 63.0954 118.187 63.1221 118.191 63.1488C118.192 63.1567 118.193 63.1647 118.194 63.1727C118.196 63.1822 118.197 63.1916 118.199 63.201ZM90.5707 104.895C93.7616 104.31 96.693 102.866 98.9944 100.745C102.077 97.896 103.808 94.035 103.808 90.0097C103.808 85.9844 102.077 82.1234 98.9944 79.2739C96.693 77.153 93.7616 75.7091 90.5707 75.1248C87.3798 74.5404 84.0728 74.8417 81.0675 75.9908C78.0623 77.1398 75.4939 79.0849 73.6868 81.5802C71.8798 84.0754 70.9153 87.0089 70.9153 90.0097C70.9153 93.0105 71.8798 95.944 73.6868 98.4392C75.4939 100.935 78.0623 102.88 81.0675 104.029C84.0728 105.178 87.3798 105.479 90.5707 104.895Z" fill="#3B66A0"/>
  </g>
  <defs>
    <filter id="filter0_d_246_2010" x="0.5" y="0.5" width="184" height="170" filterUnits="userSpaceOnUse" color-interpolation-filters="sRGB">
      <feFlood flood-opacity="0" result="BackgroundImageFix"/>
      <feColorMatrix in="SourceAlpha" type="matrix" values="0 0 0 0 0 0 0 0 0 0 0 0 0 0 0 0 0 0 127 0" result="hardAlpha"/>
      <feOffset dy="1"/>
      <feGaussianBlur stdDeviation="1"/>
      <feComposite in2="hardAlpha" operator="out"/>
      <feColorMatrix type="matrix" values="0 0 0 0 0 0 0 0 0 0 0 0 0 0 0 0 0 0 0.25 0"/>
      <feBlend mode="normal" in2="BackgroundImageFix" result="effect1_dropShadow_246_2010"/>
      <feBlend mode="normal" in="SourceGraphic" in2="effect1_dropShadow_246_2010" result="shape"/>
    </filter>
  </defs>
</svg>