<svg xmlns="http://www.w3.org/2000/svg" width="20" height="21" viewBox="0 0 20 21" fill="none">
  <path fill-rule="evenodd" clip-rule="evenodd" d="M0 10.5615C0 5.03886 4.47733 0.561523 10 0.561523C15.5227 0.561523 20 5.03886 20 10.5615C20 16.0842 15.5227 20.5615 10 20.5615C4.47733 20.5615 0 16.0842 0 10.5615ZM10.9173 10.5869L14.6333 6.87086C14.8933 6.61086 14.8933 6.18819 14.6333 5.92819C14.3733 5.66819 13.9507 5.66819 13.6907 5.92819L10.0253 9.59352L6.73733 5.92819C6.47733 5.66819 6.05467 5.66819 5.79467 5.92819C5.53467 6.18819 5.53467 6.61086 5.79467 6.87086L9.08267 10.5362L5.36667 14.2522C5.10667 14.5122 5.10667 14.9349 5.36667 15.1949C5.62667 15.4549 6.04933 15.4549 6.30933 15.1949L9.97467 11.5295L13.2627 15.1949C13.5227 15.4549 13.9453 15.4549 14.2053 15.1949C14.4653 14.9349 14.4653 14.5122 14.2053 14.2522L10.9173 10.5869Z" fill="#FF7B8E"/>
</svg>