<svg xmlns="http://www.w3.org/2000/svg" width="17" height="20" viewBox="0 0 17 20" fill="none">
  <path d="M8.5 12.5V14.5M3.8125 8.0288C4.25446 8 4.7993 8 5.5 8H11.5C12.2007 8 12.7456 8 13.1875 8.0288M3.8125 8.0288C3.26095 8.0647 2.86965 8.1455 2.53565 8.327C2.00644 8.6146 1.57619 9.0735 1.30654 9.638C1 10.2798 1 11.1198 1 12.8V14.2C1 15.8802 1 16.7202 1.30654 17.362C1.57619 17.9265 2.00644 18.3854 2.53565 18.673C3.13728 19 3.92485 19 5.5 19H11.5C13.0752 19 13.8627 19 14.4644 18.673C14.9936 18.3854 15.4238 17.9265 15.6934 17.362C16 16.7202 16 15.8802 16 14.2V12.8C16 11.1198 16 10.2798 15.6934 9.638C15.4238 9.0735 14.9936 8.6146 14.4644 8.327C14.1303 8.1455 13.739 8.0647 13.1875 8.0288M3.8125 8.0288V6C3.8125 3.23858 5.91117 1 8.5 1C11.0888 1 13.1875 3.23858 13.1875 6V8.0288" stroke="#DF1463" stroke-width="2" stroke-linecap="round" stroke-linejoin="round"/>
</svg>