<svg xmlns="http://www.w3.org/2000/svg" width="47" height="47" viewBox="0 0 47 47" fill="none">
  <path fill-rule="evenodd" clip-rule="evenodd" d="M42.3 21.15C42.3 12.0649 34.9351 4.70001 25.85 4.70001C16.7649 4.70001 9.39995 12.0649 9.39995 21.15C9.39995 30.2351 16.7649 37.6 25.85 37.6C34.9351 37.6 42.3 30.2351 42.3 21.15ZM25.85 0C37.5308 0 47 9.4692 47 21.15C47 32.831 37.5308 42.3001 25.85 42.3001C20.8562 42.3001 16.2667 40.5693 12.6484 37.675L4.01163 46.3117C3.09396 47.2294 1.60593 47.2294 0.688257 46.3117C-0.229419 45.3941 -0.229419 43.906 0.688257 42.9884L9.32499 34.3516C6.43072 30.7333 4.69995 26.1438 4.69995 21.15C4.69995 9.4692 14.1691 0 25.85 0Z" fill="white"/>
  <path d="M30.7646 15.6628C30.7672 15.6878 30.7682 15.7127 30.7707 15.7377C34.6599 15.2338 38.1091 17.9522 38.5263 21.8499C38.9443 25.7623 36.1533 29.4127 32.2625 30.0426L32.2628 30.045L18.0148 32.1584L16.4852 17.8532L16.526 17.8471C16.5232 17.8234 16.5191 17.8001 16.5166 17.7762C16.0942 13.826 18.9413 10.1505 22.8758 9.56692C26.8103 8.98332 30.3422 11.7126 30.7646 15.6628Z" fill="#DF1463"/>
  <path d="M13.273 36.8941L12.5741 36.3351L11.9413 36.9679L3.30453 45.6046C2.77737 46.1318 1.92252 46.1318 1.39536 45.6046C0.868212 45.0775 0.868212 44.2226 1.39536 43.6955L10.0321 35.0587L10.6649 34.4259L10.1059 33.727C7.34832 30.2796 5.69995 25.9086 5.69995 21.15C5.69995 10.0215 14.7213 1 25.85 1C36.9785 1 46 10.0215 46 21.15C46 32.2787 36.9785 41.3001 25.85 41.3001C21.0914 41.3001 16.7204 39.6517 13.273 36.8941ZM30.8991 16.7294C34.2324 16.2976 37.1744 18.6168 37.5319 21.9561C37.8933 25.3388 35.4705 28.5102 32.1027 29.0554L31.9255 29.0841L18.8984 31.0164L17.5816 18.7015L17.6315 18.6942L17.5193 17.7313C17.5183 17.7235 17.5174 17.7162 17.5166 17.7096C17.5158 17.7035 17.515 17.6979 17.5144 17.6931L17.5112 17.6704C17.5109 17.6682 17.5106 17.6666 17.5105 17.6654C17.1479 14.2513 19.6192 11.0609 23.0225 10.5561C26.3945 10.0559 29.4057 12.383 29.7697 15.7645C29.7698 15.7659 29.77 15.7682 29.7702 15.7715L29.772 15.7953C29.7723 15.7996 29.7727 15.8043 29.7731 15.8095C29.7737 15.8169 29.7745 15.8252 29.7753 15.8341L29.8749 16.8621L30.8991 16.7294ZM43.3 21.15C43.3 11.5127 35.4874 3.70001 25.85 3.70001C16.2126 3.70001 8.39995 11.5127 8.39995 21.15C8.39995 30.7874 16.2126 38.6 25.85 38.6C35.4873 38.6 43.3 30.7874 43.3 21.15Z" stroke="white" stroke-width="2"/>
</svg>