<svg width="46" height="43" viewBox="0 0 46 43" fill="none" xmlns="http://www.w3.org/2000/svg">
<path fill-rule="evenodd" clip-rule="evenodd" d="M31.7656 21.5C31.7656 20.6199 31.0521 19.9063 30.1719 19.9063H6.85519L11.0216 16.3351C11.6899 15.7623 11.7673 14.7561 11.1944 14.0878C10.6216 13.4195 9.61547 13.3421 8.94718 13.915L1.50968 20.2901C1.15642 20.5927 0.953125 21.0349 0.953125 21.5C0.953125 21.9652 1.15642 22.4074 1.50968 22.71L8.94718 29.085C9.61547 29.6579 10.6216 29.5806 11.1944 28.9122C11.7673 28.2439 11.6899 27.2377 11.0216 26.6651L6.85519 23.0938H30.1719C31.0521 23.0938 31.7656 22.3802 31.7656 21.5Z" fill="#E32970"/>
<path d="M17.4219 13C17.4219 14.4922 17.4219 15.2382 17.78 15.7742C17.935 16.0063 18.1343 16.2055 18.3664 16.3606C18.9024 16.7187 19.6485 16.7187 21.1406 16.7187H30.1719C32.8124 16.7187 34.9531 18.8593 34.9531 21.5C34.9531 24.1405 32.8124 26.2812 30.1719 26.2812H21.1406C19.6485 26.2812 18.9021 26.2812 18.3662 26.6393C18.1342 26.7944 17.9351 26.9935 17.78 27.2256C17.4219 27.7615 17.4219 28.5076 17.4219 30C17.4219 36.0103 17.4219 39.0155 19.2891 40.8828C21.1564 42.75 24.1611 42.75 30.1714 42.75H32.2964C38.3068 42.75 41.312 42.75 43.1792 40.8828C45.0464 39.0155 45.0464 36.0103 45.0464 30V13C45.0464 6.98961 45.0464 3.98439 43.1792 2.11719C41.312 0.25 38.3068 0.25 32.2964 0.25H30.1714C24.1611 0.25 21.1564 0.25 19.2891 2.11719C17.4219 3.98439 17.4219 6.98959 17.4219 13Z" fill="#E32970"/>
</svg>
