<svg xmlns="http://www.w3.org/2000/svg" width="15" height="12" viewBox="0 0 15 12" fill="none">
  <path fill-rule="evenodd" clip-rule="evenodd" d="M14.6828 8.45576C14.9484 8.33709 15.0714 8.01644 14.9576 7.73955L14.4766 7.95442C14.9576 7.73955 14.9576 7.73955 14.9576 7.73955L14.9571 7.73833L14.9563 7.73652L14.9541 7.73117L14.9466 7.71366C14.9403 7.69902 14.9314 7.6785 14.9198 7.65255C14.8966 7.60066 14.8627 7.52697 14.8177 7.43504C14.7278 7.25129 14.5935 6.99394 14.4128 6.69155C14.1158 6.1948 13.69 5.57074 13.1245 4.95068L13.8001 4.24648C14.0044 4.03346 14.0044 3.68809 13.8001 3.47507C13.5958 3.26206 13.2645 3.26206 13.0601 3.47507L12.362 4.20277C11.9018 3.80081 11.374 3.42358 10.7755 3.11362L11.4269 2.07015C11.5845 1.81772 11.5159 1.47984 11.2737 1.31555C11.0314 1.15126 10.7073 1.22275 10.5497 1.47525L9.78979 2.69261C9.24609 2.50753 8.6574 2.38171 8.02315 2.33662V1.04544C8.02315 0.744213 7.78887 0.5 7.49989 0.5C7.21092 0.5 6.97664 0.744213 6.97664 1.04544V2.33662C6.36199 2.38033 5.79003 2.49982 5.26031 2.67567L4.51097 1.47518C4.35336 1.22268 4.02923 1.15119 3.78701 1.31547C3.54479 1.47976 3.4762 1.81765 3.6338 2.07015L4.27037 3.08992C3.66731 3.39696 3.1352 3.77252 2.67098 4.17397L2.00053 3.47507C1.79619 3.26206 1.46489 3.26206 1.26054 3.47507C1.0562 3.68809 1.0562 4.03339 1.26054 4.2464L1.90503 4.91825C1.32975 5.54347 0.896683 6.17513 0.594954 6.67832C0.411515 6.98422 0.275302 7.24487 0.184102 7.43101C0.138475 7.52415 0.104024 7.59882 0.0804913 7.65141C0.0687216 7.67771 0.0596728 7.69851 0.0533101 7.71334L0.0457821 7.73107L0.0435217 7.73649L0.0427613 7.73832C0.0427613 7.73832 0.0422519 7.73955 0.523198 7.95442L0.0427613 7.73832C-0.0710707 8.01521 0.0514612 8.33709 0.317079 8.45576C0.582479 8.57432 0.889804 8.44637 1.00387 8.16996L1.00453 8.16837L1.00877 8.15839C1.01288 8.1488 1.01958 8.13339 1.02887 8.11261C1.04748 8.07104 1.07648 8.00805 1.11611 7.92716C1.19543 7.76526 1.31694 7.53241 1.48236 7.25654C1.81418 6.70318 2.31736 5.98566 3.0039 5.32057C3.60801 4.73534 4.3483 4.19622 5.23368 3.84117C5.8996 3.57412 6.65257 3.40904 7.49989 3.40904C8.36619 3.40904 9.13391 3.58154 9.81093 3.85936C10.691 4.22044 11.4262 4.76305 12.0255 5.34937C12.7019 6.0112 13.1977 6.72159 13.5246 7.26846C13.6876 7.54111 13.8073 7.77095 13.8854 7.93066C13.9245 8.01044 13.953 8.07254 13.9713 8.1135C13.9805 8.13398 13.9871 8.14915 13.9912 8.1586L13.9953 8.1684M14.6828 8.45576C14.4172 8.57439 14.1091 8.44514 13.9953 8.1684L14.6828 8.45576Z" fill="#DF1463"/>
  <path d="M11 8.5C11 10.1568 9.43298 11.5 7.5 11.5C5.56701 11.5 4 10.1568 4 8.5C4 6.84316 5.56701 5.5 7.5 5.5C9.43298 5.5 11 6.84316 11 8.5Z" stroke="#DF1463" stroke-linecap="round" stroke-linejoin="round"/>
</svg>