<svg xmlns="http://www.w3.org/2000/svg" width="329" height="215" viewBox="0 0 329 215" fill="none">
  <path d="M273.659 132.853C273.706 162.241 263.672 190.807 245.141 214.043H28.5186C9.9869 190.807 -0.0471957 162.241 0.000166903 132.853C0.000166903 59.4779 61.2629 0 136.833 0C212.403 0 273.659 59.4779 273.659 132.853Z" fill="white"/>
  <path d="M273.659 132.853C273.706 162.241 263.672 190.807 245.141 214.043H28.5186C9.9869 190.807 -0.0471957 162.241 0.000166903 132.853C0.000166903 59.4779 61.2629 0 136.833 0C212.403 0 273.659 59.4779 273.659 132.853Z" fill="#FFF2F4"/>
  <path d="M25.8541 215H247.806C247.92 215 248.029 214.956 248.11 214.878C248.191 214.799 248.236 214.693 248.236 214.582C248.236 214.472 248.191 214.365 248.11 214.287C248.029 214.209 247.92 214.165 247.806 214.165H25.8541C25.7401 214.165 25.6307 214.209 25.55 214.287C25.4694 214.365 25.4241 214.472 25.4241 214.582C25.4241 214.693 25.4694 214.799 25.55 214.878C25.6307 214.956 25.7401 215 25.8541 215Z" fill="#474646"/>
  <path d="M78.3329 43.9828C78.3329 43.9828 77.1646 57.416 73.9591 62.242C64.7311 76.1349 61.8434 91.893 70.6771 100.304C79.5108 108.714 136.812 109.814 141.499 90.8992C145.446 74.975 137.634 73.1211 135.967 59.8995C135.212 53.9174 133.066 41.3635 133.066 41.3635" fill="#474646"/>
  <path d="M127.227 87.66C127.128 87.6475 126.03 105.335 104.868 103.793C90.2176 102.727 84.994 87.6337 84.6564 87.6337C86.2359 87.3076 88.8961 86.8337 89.5975 86.4704C91.9046 85.2666 94.7579 84.0144 95.5022 79.6645C95.9323 77.1592 95.2038 64.3314 95.4278 61.7936L117.916 66.6672C117.602 72.0242 115.402 84.4441 123.111 86.642C124.395 87.0082 125.776 87.3423 127.227 87.66Z" fill="#FFB6B6"/>
  <path d="M118.233 81.5688C117.881 80.4666 117.654 79.3302 117.557 78.18C117.309 75.5552 117.359 72.912 117.704 70.2976C113.133 69.6985 108.828 67.8669 105.276 65.0107C104.858 66.508 102.562 73.0509 103.198 74.4739C104.399 77.162 110.045 81.5688 118.233 81.5688Z" fill="#474646"/>
  <path d="M115.029 76.0565C106.149 76.7367 94.7422 73.0961 92.5757 61.5928L90.6204 51.2135C88.4539 39.7101 92.9197 29.2799 104.075 27.2991C115.23 25.3182 125.324 33.1626 127.491 44.666L128.356 49.2615C129.188 53.6753 130.873 74.8427 115.029 76.0565Z" fill="#FFB6B6"/>
  <path d="M118.655 60.1464L118.676 60.143C119.128 60.0596 119.575 59.952 120.015 59.8207C120.671 59.6199 121.531 59.2866 121.424 58.7113C121.3 58.0557 118.119 51.3124 117.757 50.5454C117.723 50.4809 117.666 50.4315 117.596 50.4076C117.526 50.3837 117.449 50.3871 117.381 50.4172C117.314 50.4472 117.261 50.5016 117.234 50.5687C117.207 50.6359 117.208 50.7106 117.236 50.7771C118.593 53.649 120.777 58.3701 120.86 58.8115C120.785 59.0152 119.695 59.396 118.574 59.5965C118.502 59.6101 118.438 59.65 118.395 59.7082C118.352 59.7663 118.334 59.8381 118.345 59.9088C118.355 59.9794 118.393 60.0435 118.451 60.0877C118.508 60.1319 118.581 60.1529 118.655 60.1464Z" fill="#474646"/>
  <path d="M116.974 65.0971C118.793 64.8788 120.534 64.2484 122.056 63.257C122.119 63.2172 122.164 63.1544 122.18 63.0825C122.197 63.0105 122.183 62.9353 122.142 62.8733C122.101 62.8113 122.036 62.7677 121.962 62.7521C121.888 62.7364 121.81 62.75 121.746 62.7898C118.453 64.8449 115.192 65.1614 112.315 63.7042C112.257 63.6731 112.197 63.6452 112.136 63.6207C112.064 63.5953 111.986 63.5984 111.917 63.6293C111.848 63.6603 111.795 63.7165 111.768 63.7856C111.742 63.8548 111.745 63.9312 111.777 63.9981C111.809 64.065 111.867 64.1168 111.938 64.1422C111.961 64.1514 111.998 64.171 112.05 64.1978C113.563 64.9664 115.277 65.2796 116.974 65.0971Z" fill="#474646"/>
  <path d="M81.685 54.7734L91.6841 53.0547C99.2672 50.1282 101.635 37.4273 101.635 37.4273C101.635 37.4273 110.768 46.177 133.066 41.3648C133.066 41.3648 128.792 11.1876 95.8416 19.7581C85.2168 22.5214 77.5386 32.8544 78.3991 46.7315C79.002 56.4548 81.685 54.7734 81.685 54.7734Z" fill="#474646"/>
  <path d="M93.9288 64.9744C90.5389 65.5765 87.1275 62.5431 86.5074 59.2516C85.8872 55.9601 88.2941 53.6564 91.6841 53.0547L93.8459 54.95L96.8432 64.4567L93.9288 64.9744Z" fill="#FFB6B6"/>
  <path d="M120.249 45.2551C121.105 44.6897 122.099 44.3542 123.131 44.2827C123.649 44.2434 124.171 44.2803 124.679 44.3921C125.191 44.5027 125.686 44.6752 126.154 44.9056L126.168 44.9123C126.22 44.935 126.279 44.9372 126.332 44.9186C126.386 44.8999 126.43 44.8619 126.455 44.8124C126.48 44.7629 126.484 44.7059 126.467 44.6534C126.449 44.6009 126.412 44.5571 126.361 44.5311C125.867 44.2662 125.339 44.0629 124.792 43.9261C124.241 43.7861 123.671 43.7272 123.102 43.7516C121.949 43.7936 120.828 44.1355 119.857 44.7416C119.821 44.7645 119.79 44.7942 119.766 44.8288C119.742 44.8634 119.725 44.9024 119.716 44.9434C119.707 44.9844 119.707 45.0267 119.715 45.0679C119.723 45.1091 119.739 45.1483 119.763 45.1833C119.786 45.2183 119.817 45.2485 119.853 45.2721C119.888 45.2957 119.928 45.3122 119.971 45.3207C120.013 45.3293 120.056 45.3296 120.099 45.3218C120.141 45.314 120.182 45.2981 120.218 45.2752L120.225 45.2702L120.249 45.2551Z" fill="#474646"/>
  <path d="M111.125 46.3198C109.996 46.0819 108.823 46.1422 107.727 46.4943C107.185 46.6651 106.673 46.9138 106.207 47.2321C105.743 47.546 105.322 47.9156 104.954 48.332C104.934 48.3522 104.919 48.3761 104.909 48.4022C104.898 48.4283 104.893 48.4561 104.894 48.484C104.896 48.5404 104.92 48.5938 104.963 48.6326C105.005 48.6713 105.061 48.6922 105.119 48.6907C105.177 48.6891 105.232 48.6652 105.272 48.6242L105.284 48.6125C105.639 48.2379 106.041 47.908 106.481 47.6309C106.916 47.3534 107.391 47.1413 107.892 47.0021C108.885 46.7179 109.939 46.6944 110.945 46.934L110.97 46.9403C111.054 46.9616 111.144 46.9496 111.219 46.9068C111.294 46.864 111.349 46.794 111.371 46.7121C111.393 46.6302 111.38 46.5432 111.336 46.4702C111.292 46.3971 111.22 46.3441 111.136 46.3227L111.125 46.3198Z" fill="#474646"/>
  <path d="M117.343 67.7081C117.672 67.6738 117.998 67.6121 118.317 67.5239C118.39 67.504 118.452 67.4567 118.489 67.3924C118.526 67.3282 118.536 67.2522 118.515 67.1813C118.495 67.1104 118.446 67.0503 118.38 67.0142C118.314 66.9782 118.235 66.9691 118.162 66.989C116.244 67.5126 115.159 66.7974 115.114 66.7665C115.052 66.7238 114.975 66.7067 114.9 66.719C114.826 66.7312 114.759 66.7718 114.715 66.8318C114.671 66.8919 114.653 66.9664 114.666 67.039C114.679 67.1116 114.72 67.1764 114.782 67.2191C115.552 67.6646 116.457 67.8373 117.343 67.7081Z" fill="#474646"/>
  <path d="M91.6933 52.8961C98.4362 50.5913 100.741 46.1373 101.487 42.8066C101.97 40.5851 101.97 38.2901 101.487 36.0687L101.278 36.1204C101.754 38.313 101.752 40.5778 101.274 42.7698C100.538 46.0459 98.2638 50.4276 91.6206 52.6998L91.6933 52.8961Z" fill="#474646"/>
  <path d="M60.751 192.75L58.2117 214.582H150.281L148.861 192.613L60.751 192.75Z" fill="#474646"/>
  <path d="M104.382 99.3967C89.7215 98.7261 89.1044 86.6437 89.1044 86.6437C89.1044 86.6437 81.8403 87.0996 77.0111 87.7339C69.1054 88.7723 60.7245 91.4083 56.9208 97.7904C54.1867 102.38 53.5283 103.21 56.0156 129.106C57.8166 147.856 60.7503 192.751 60.7503 192.751L148.86 192.613C148.86 192.613 152.781 135.04 153.521 126.599C154.933 110.487 157.161 87.7765 152.431 86.6428C146.92 85.3221 128.931 87.4934 123.113 86.6428C123.014 86.6303 124.347 100.311 104.382 99.3967Z" fill="#DF1463"/>
  <path d="M260.539 36.2403C260.668 35.9592 260.854 35.7065 261.086 35.4975C261.318 35.2886 261.592 35.1277 261.89 35.0248C262.188 34.9219 262.505 34.879 262.821 34.8989C263.137 34.9188 263.445 35.001 263.727 35.1405C264.264 35.4287 264.668 35.904 264.857 36.4702C265.046 37.0364 265.007 37.6513 264.747 38.1906L263.472 40.9844L271.664 33.9609C272.561 33.1646 274.186 32.7442 275.039 33.7797C275.394 34.1573 275.607 34.6406 275.642 35.1507C275.678 35.6608 275.534 36.1674 275.235 36.5881C275.246 36.5947 275.256 36.6025 275.265 36.6115C275.27 36.6187 275.274 36.6262 275.278 36.634L276.661 35.406C276.916 35.1802 277.219 35.012 277.548 34.9136C277.878 34.8151 278.226 34.789 278.568 34.8369C278.909 34.8848 279.235 35.0056 279.523 35.1907C279.81 35.3758 280.052 35.6204 280.23 35.9071C280.505 36.3703 280.606 36.9114 280.517 37.4388C280.428 37.9662 280.154 38.4474 279.741 38.8011L279.153 39.3234C279.161 39.3477 279.164 39.3731 279.162 39.3986C279.639 39.1372 280.196 39.0475 280.734 39.1451C281.273 39.2427 281.758 39.5214 282.106 39.9322C282.478 40.4052 282.652 40.9979 282.591 41.5903C282.531 42.1828 282.24 42.7308 281.78 43.1235L280.333 44.4078C280.367 44.4036 280.402 44.4073 280.434 44.4187C280.466 44.43 280.495 44.4486 280.518 44.473C280.545 44.5032 280.561 44.5402 280.566 44.5794C281.049 44.4636 281.557 44.5008 282.017 44.6856C282.476 44.8704 282.863 45.1932 283.12 45.6066C283.395 46.0698 283.496 46.6109 283.407 47.1383C283.317 47.6657 283.043 48.147 282.631 48.5006L270.3 59.4524C268.575 60.9843 266.418 61.9811 264.106 62.315C261.793 62.6489 259.431 62.3046 257.321 61.3263L250.529 58.1763L260.539 36.2403Z" fill="#FFB6B6"/>
  <path d="M267.165 43.5807C267.203 43.6209 267.256 43.6449 267.313 43.6476C267.369 43.6502 267.424 43.6313 267.466 43.5949L275.247 36.9063C275.268 36.8881 275.285 36.8661 275.298 36.8414C275.31 36.8168 275.317 36.79 275.319 36.7626C275.321 36.7352 275.317 36.7078 275.308 36.6819C275.299 36.6559 275.283 36.632 275.265 36.6115C275.246 36.5909 275.224 36.5742 275.199 36.5622C275.173 36.5502 275.146 36.5431 275.118 36.5415C275.089 36.5398 275.061 36.5435 275.034 36.5525C275.008 36.5614 274.983 36.5754 274.962 36.5935L267.178 43.2826C267.157 43.3008 267.14 43.3229 267.128 43.3475C267.115 43.3722 267.108 43.399 267.106 43.4263C267.105 43.4537 267.109 43.4811 267.118 43.5071C267.127 43.533 267.142 43.5569 267.16 43.5774L267.165 43.5807Z" fill="#474646"/>
  <path d="M270.11 46.9941C270.148 47.0344 270.201 47.0584 270.257 47.0612C270.313 47.0639 270.368 47.0451 270.411 47.0087L279.094 39.5434C279.115 39.5253 279.133 39.5032 279.145 39.4786C279.157 39.4539 279.165 39.4271 279.166 39.3998C279.168 39.3724 279.164 39.345 279.155 39.319C279.146 39.2931 279.131 39.2692 279.113 39.2487C279.074 39.2088 279.021 39.1849 278.964 39.1816C278.908 39.1783 278.852 39.196 278.809 39.2311L270.125 46.696C270.104 46.7142 270.087 46.7362 270.074 46.7609C270.062 46.7856 270.055 46.8123 270.053 46.8397C270.051 46.8671 270.055 46.8945 270.065 46.9204C270.074 46.9464 270.088 46.9702 270.107 46.9907L270.11 46.9941Z" fill="#474646"/>
  <path d="M273.275 50.709C273.313 50.7493 273.366 50.7734 273.423 50.7761C273.479 50.7788 273.534 50.76 273.576 50.7236L280.503 44.769C280.546 44.7323 280.572 44.6805 280.576 44.6252C280.579 44.5699 280.56 44.5155 280.522 44.474C280.484 44.4326 280.431 44.4074 280.374 44.4041C280.317 44.4007 280.261 44.4195 280.218 44.4563L273.291 50.4109C273.27 50.429 273.253 50.4511 273.24 50.4757C273.228 50.5004 273.221 50.5272 273.219 50.5546C273.217 50.5819 273.221 50.6094 273.23 50.6353C273.239 50.6612 273.254 50.6851 273.272 50.7057L273.275 50.709Z" fill="#474646"/>
  <path d="M252.686 43.9827L205.992 81.1228L141.353 86.7847C137.208 87.122 133.358 89.0015 130.606 92.0306C127.855 95.0596 126.415 99.0039 126.588 103.039C126.761 107.075 128.533 110.889 131.535 113.686C134.536 116.482 138.535 118.044 142.694 118.046C143.15 118.046 143.609 118.027 144.07 117.989L213.782 111.91C217.084 111.639 220.22 110.387 222.763 108.324L271.666 66.1989L252.686 43.9827Z" fill="#DF1463"/>
  <path d="M263.043 42.0279L264.747 38.1906C265.007 37.6513 265.046 37.0364 264.857 36.4702C264.668 35.904 264.264 35.4287 263.727 35.1405C263.445 35.001 263.137 34.9188 262.821 34.8989C262.505 34.879 262.188 34.9219 261.89 35.0248C261.592 35.1277 261.318 35.2886 261.086 35.4975C260.854 35.7065 260.668 35.9592 260.539 36.2403" fill="#FFB6B6"/>
  <path d="M141.13 157.168C141.083 157.761 140.806 158.315 140.354 158.718C139.902 159.12 139.31 159.34 138.697 159.333L136.737 159.356C136.765 159.375 136.788 159.4 136.804 159.429C136.82 159.458 136.828 159.491 136.828 159.523C136.829 159.563 136.816 159.602 136.792 159.635C137.232 159.861 137.585 160.218 137.801 160.654C138.016 161.089 138.082 161.58 137.989 162.055C137.875 162.577 137.578 163.046 137.149 163.381C136.721 163.716 136.186 163.898 135.635 163.895L118.929 164.071C116.591 164.097 114.299 163.444 112.346 162.196C110.393 160.948 108.869 159.162 107.969 157.067L105.066 150.321L113.957 148.484L114.169 146.332L127.593 140.452C127.882 140.326 128.194 140.258 128.51 140.252C128.827 140.247 129.141 140.304 129.434 140.42C129.727 140.536 129.993 140.709 130.214 140.928C130.436 141.148 130.61 141.408 130.725 141.695C130.927 142.257 130.901 142.873 130.654 143.417C130.406 143.962 129.955 144.395 129.391 144.63L126.521 145.886L137.449 145.957C138.666 145.944 140.165 146.682 140.09 148.003C140.096 148.514 139.923 149.013 139.6 149.417C139.277 149.82 138.822 150.106 138.31 150.226C138.31 150.239 138.312 150.248 138.313 150.262L138.306 150.285L140.18 150.266C140.526 150.262 140.868 150.333 141.182 150.473C141.496 150.613 141.773 150.819 141.995 151.077C142.217 151.334 142.377 151.636 142.464 151.96C142.551 152.285 142.562 152.624 142.497 152.954C142.384 153.476 142.088 153.944 141.66 154.279C141.232 154.614 140.698 154.795 140.149 154.791L139.347 154.802C139.336 154.823 139.323 154.843 139.308 154.861C139.842 154.977 140.317 155.271 140.65 155.693C140.984 156.115 141.153 156.637 141.13 157.168Z" fill="#FFB6B6"/>
  <path d="M127.489 150.212C127.49 150.267 127.513 150.319 127.553 150.357C127.593 150.396 127.647 150.417 127.704 150.417L138.096 150.47C138.153 150.47 138.208 150.448 138.248 150.409C138.289 150.37 138.311 150.316 138.311 150.261C138.311 150.206 138.289 150.153 138.248 150.114C138.208 150.074 138.153 150.052 138.096 150.052L127.704 150C127.647 150 127.592 150.022 127.552 150.061C127.511 150.1 127.489 150.153 127.489 150.209V150.212Z" fill="#474646"/>
  <path d="M127.338 154.662C127.339 154.717 127.363 154.769 127.403 154.807C127.443 154.846 127.497 154.867 127.553 154.867L139.151 154.926C139.208 154.926 139.263 154.904 139.303 154.865C139.344 154.826 139.366 154.773 139.366 154.717C139.365 154.662 139.341 154.61 139.301 154.572C139.261 154.533 139.208 154.51 139.151 154.508L127.553 154.45C127.496 154.45 127.442 154.472 127.401 154.511C127.361 154.55 127.338 154.603 127.338 154.659V154.662Z" fill="#474646"/>
  <path d="M127.148 159.481C127.149 159.535 127.172 159.587 127.212 159.626C127.252 159.664 127.306 159.686 127.363 159.686L136.614 159.732C136.671 159.732 136.726 159.71 136.766 159.671C136.806 159.632 136.828 159.579 136.828 159.523C136.828 159.468 136.806 159.415 136.766 159.376C136.726 159.337 136.671 159.315 136.614 159.315L127.363 159.268C127.306 159.268 127.251 159.29 127.211 159.329C127.17 159.368 127.148 159.421 127.148 159.477V159.481Z" fill="#474646"/>
  <path d="M118.066 168.899L48.1151 180.997C45.1763 181.755 42.0768 181.69 39.1742 180.811C36.2717 179.931 33.6843 178.273 31.7107 176.027C29.737 173.781 28.4575 171.039 28.0198 168.118C27.5821 165.196 28.0039 162.214 29.2367 159.515L54.7114 101.978C58.3236 94.0727 67.2515 90.5073 75.3916 94.0142C79.301 95.6982 82.3614 98.8211 83.8994 102.696C85.4375 106.571 85.3273 110.88 83.5932 114.676L68.6332 149.108L115.415 143.073L118.066 168.899Z" fill="#DF1463"/>
  <path d="M60.1703 179.201C60.1904 179.201 60.2104 179.198 60.2296 179.192L118.126 169.099C118.179 169.084 118.225 169.049 118.253 169.002C118.28 168.955 118.288 168.899 118.274 168.846L115.624 142.185C115.61 142.132 115.575 142.086 115.526 142.058C115.478 142.03 115.42 142.021 115.366 142.034L69.0203 148.807L83.7837 114.766C83.8051 114.717 83.8062 114.661 83.7866 114.611C83.7671 114.561 83.7285 114.52 83.6788 114.497C83.6291 114.474 83.5721 114.47 83.5196 114.486C83.4671 114.503 83.4231 114.538 83.3967 114.585L68.4398 149.018C68.4226 149.053 68.4161 149.092 68.4209 149.131C68.4257 149.17 68.4417 149.207 68.467 149.237C68.4923 149.268 68.5258 149.291 68.5639 149.304C68.602 149.316 68.643 149.319 68.6823 149.31L115.26 142.484L117.805 168.753L60.1105 178.792C60.0605 178.806 60.0173 178.837 59.989 178.879C59.9606 178.922 59.949 178.972 59.9563 179.022C59.9636 179.072 59.9893 179.118 60.0286 179.151C60.068 179.184 60.1183 179.202 60.1703 179.202V179.201Z" fill="#474646"/>
  <path d="M62.8438 150.068C62.8592 150.068 62.8745 150.066 62.8894 150.063L68.6798 149.312C68.7076 149.306 68.734 149.295 68.7575 149.28C68.781 149.264 68.801 149.244 68.8165 149.221C68.832 149.198 68.8425 149.172 68.8476 149.145C68.8528 149.118 68.8523 149.09 68.8462 149.063C68.8402 149.036 68.8287 149.01 68.8124 148.988C68.7961 148.965 68.7754 148.946 68.7514 148.931C68.7274 148.916 68.7006 148.906 68.6726 148.901C68.6446 148.897 68.6159 148.898 68.5882 148.904L62.7978 149.655C62.7462 149.666 62.7007 149.696 62.6699 149.737C62.6391 149.779 62.6252 149.83 62.6309 149.882C62.6366 149.933 62.6614 149.98 62.7007 150.014C62.74 150.048 62.791 150.068 62.8438 150.068Z" fill="#474646"/>
  <path d="M154.34 117.354C154.395 117.355 154.447 117.335 154.487 117.299C154.527 117.263 154.551 117.214 154.555 117.162L155.514 105.12C155.518 105.065 155.499 105.01 155.462 104.968C155.425 104.926 155.372 104.9 155.315 104.896C155.258 104.891 155.202 104.909 155.158 104.945C155.115 104.981 155.088 105.033 155.084 105.088L154.125 117.13C154.121 117.185 154.14 117.239 154.177 117.281C154.214 117.323 154.266 117.349 154.323 117.354C154.329 117.354 154.335 117.355 154.34 117.354Z" fill="#474646"/>
  <path d="M125.028 49.205C125.799 49.205 126.424 48.5979 126.424 47.8489C126.424 47.0999 125.799 46.4927 125.028 46.4927C124.256 46.4927 123.631 47.0999 123.631 47.8489C123.631 48.5979 124.256 49.205 125.028 49.205Z" fill="#474646"/>
  <path d="M110.869 51.5274C111.641 51.5274 112.266 50.9202 112.266 50.1712C112.266 49.4222 111.641 48.8151 110.869 48.8151C110.098 48.8151 109.472 49.4222 109.472 50.1712C109.472 50.9202 110.098 51.5274 110.869 51.5274Z" fill="#474646"/>
  <path d="M304.897 1.69891H171.686C158.692 1.69891 148.16 10.0333 148.16 20.3139C148.16 30.5944 158.692 38.9284 171.686 38.9284H304.897C317.89 38.9284 328.423 30.594 328.423 20.3134C328.423 10.0329 317.89 1.69891 304.897 1.69891Z" fill="white"/>
  <path d="M304.897 39.2958H171.686C165.342 39.2723 159.269 37.262 154.794 33.7047C150.319 30.1474 147.807 25.3327 147.807 20.3137C147.807 15.2947 150.319 10.4799 154.794 6.92262C159.269 3.36533 165.342 1.35505 171.686 1.33151H304.897C308.057 1.31978 311.188 1.80211 314.112 2.7508C317.036 3.69949 319.694 5.09585 321.933 6.85967C324.173 8.62349 325.95 10.72 327.163 13.0289C328.376 15.3377 329 17.8134 329 20.3137C329 22.814 328.376 25.2896 327.163 27.5985C325.95 29.9073 324.173 32.0039 321.933 33.7677C319.694 35.5315 317.036 36.9279 314.112 37.8765C311.188 38.8252 308.057 39.3076 304.897 39.2958ZM171.686 2.06638C165.569 2.06638 159.704 3.9888 155.379 7.41071C151.054 10.8326 148.625 15.4737 148.625 20.313C148.625 25.1524 151.054 29.7935 155.379 33.2154C159.704 36.6373 165.569 38.5597 171.686 38.5597H304.897C311.013 38.5597 316.879 36.6373 321.203 33.2154C325.528 29.7935 327.958 25.1524 327.958 20.313C327.958 15.4737 325.528 10.8326 321.203 7.41071C316.879 3.9888 311.013 2.06638 304.897 2.06638H171.686Z" fill="#DF1463"/>
  <path d="M184.161 19.8594C184.161 26.0588 178.983 31.0843 172.595 31.0843C166.208 31.0843 161.03 26.0588 161.03 19.8594C161.03 13.6601 166.208 8.63452 172.595 8.63452C178.983 8.63452 184.161 13.6601 184.161 19.8594Z" fill="#FF7C8F"/>
  <path d="M217.968 19.8594C217.968 26.0588 212.79 31.0843 206.402 31.0843C200.015 31.0843 194.837 26.0588 194.837 19.8594C194.837 13.6601 200.015 8.63452 206.402 8.63452C212.79 8.63452 217.968 13.6601 217.968 19.8594Z" fill="#F45980"/>
  <path d="M251.775 19.8594C251.775 26.0588 246.597 31.0843 240.209 31.0843C233.822 31.0843 228.644 26.0588 228.644 19.8594C228.644 13.6601 233.822 8.63452 240.209 8.63452C246.597 8.63452 251.775 13.6601 251.775 19.8594Z" fill="#EA3772"/>
  <path d="M284.693 19.8594C284.693 26.0588 279.515 31.0843 273.127 31.0843C266.74 31.0843 261.562 26.0588 261.562 19.8594C261.562 13.6601 266.74 8.63452 273.127 8.63452C279.515 8.63452 284.693 13.6601 284.693 19.8594Z" fill="#E4256A"/>
  <path d="M317.037 19.6015C317.037 25.8008 311.859 30.8264 305.472 30.8264C299.084 30.8264 293.906 25.8008 293.906 19.6015C293.906 13.4021 299.084 8.37659 305.472 8.37659C311.859 8.37659 317.037 13.4021 317.037 19.6015Z" fill="#DF1463"/>
</svg>