<svg xmlns="http://www.w3.org/2000/svg" width="64" height="64" viewBox="0 0 64 64" fill="none">
  <g filter="url(#filter0_d_246_2163)">
    <path d="M32 60C47.464 60 60 47.464 60 32C60 16.536 47.464 4 32 4C16.536 4 4 16.536 4 32C4 47.464 16.536 60 32 60Z" fill="white"/>
  </g>
  <path fill-rule="evenodd" clip-rule="evenodd" d="M25.4788 22.1789C26.0696 21.1653 26.365 20.6599 26.7766 20.2917C27.1406 19.9658 27.5689 19.7197 28.0338 19.5693C28.5588 19.3999 29.144 19.3999 30.3158 19.3999H33.6828C34.856 19.3999 35.4412 19.3999 35.9662 19.5693C36.4311 19.7197 36.8594 19.9658 37.2234 20.2917C37.635 20.6599 37.9304 21.1653 38.5212 22.1789L39.35 23.5999H40.4C42.36 23.5999 43.34 23.5999 44.089 23.9807C44.7474 24.3166 45.2825 24.8522 45.6178 25.5109C46 26.2599 46 27.2399 46 29.1999V37.5999C46 39.5599 46 40.5399 45.6178 41.2889C45.2823 41.9471 44.7472 42.4822 44.089 42.8177C43.34 43.1999 42.36 43.1999 40.4 43.1999H23.6C21.64 43.1999 20.66 43.1999 19.911 42.8177C19.2523 42.4825 18.7167 41.9473 18.3808 41.2889C18 40.5399 18 39.5599 18 37.5999V29.1999C18 27.2399 18 26.2599 18.3808 25.5109C18.7164 24.852 19.2521 24.3163 19.911 23.9807C20.66 23.5999 21.64 23.5999 23.6 23.5999H24.65L25.4788 22.1789ZM32 39.0699C33.7637 39.0699 35.4551 38.3693 36.7023 37.1222C37.9494 35.875 38.65 34.1836 38.65 32.4199C38.65 30.6562 37.9494 28.9648 36.7023 27.7176C35.4551 26.4705 33.7637 25.7699 32 25.7699C30.2363 25.7699 28.5449 26.4705 27.2977 27.7176C26.0506 28.9648 25.35 30.6562 25.35 32.4199C25.35 34.1836 26.0506 35.875 27.2977 37.1222C28.5449 38.3693 30.2363 39.0699 32 39.0699ZM35.78 32.4199C35.78 33.4224 35.3818 34.3839 34.6729 35.0928C33.964 35.8017 33.0025 36.1999 32 36.1999C30.9975 36.1999 30.036 35.8017 29.3271 35.0928C28.6182 34.3839 28.22 33.4224 28.22 32.4199C28.22 31.4174 28.6182 30.4559 29.3271 29.747C30.036 29.0382 30.9975 28.6399 32 28.6399C33.0025 28.6399 33.964 29.0382 34.6729 29.747C35.3818 30.4559 35.78 31.4174 35.78 32.4199Z" fill="#EC0F69"/>
  <defs>
    <filter id="filter0_d_246_2163" x="0" y="0" width="64" height="64" filterUnits="userSpaceOnUse" color-interpolation-filters="sRGB">
      <feFlood flood-opacity="0" result="BackgroundImageFix"/>
      <feColorMatrix in="SourceAlpha" type="matrix" values="0 0 0 0 0 0 0 0 0 0 0 0 0 0 0 0 0 0 127 0" result="hardAlpha"/>
      <feOffset/>
      <feGaussianBlur stdDeviation="2"/>
      <feComposite in2="hardAlpha" operator="out"/>
      <feColorMatrix type="matrix" values="0 0 0 0 0 0 0 0 0 0 0 0 0 0 0 0 0 0 0.5 0"/>
      <feBlend mode="normal" in2="BackgroundImageFix" result="effect1_dropShadow_246_2163"/>
      <feBlend mode="normal" in="SourceGraphic" in2="effect1_dropShadow_246_2163" result="shape"/>
    </filter>
  </defs>
</svg>