<svg xmlns="http://www.w3.org/2000/svg" data-name="Layer 1" width="717.67004" height="596.3292" viewBox="0 0 717.67004 596.3292" xmlns:xlink="http://www.w3.org/1999/xlink"><path d="M835.28461,281.522a7.74428,7.74428,0,0,0-6.49595,8.63,7.42984,7.42984,0,0,0,.274,1.19724l-21.49744,16.36448,4.46573,13.8298,27.02516-25.6012a7.72281,7.72281,0,0,0,4.75993-8.13863,7.39069,7.39069,0,0,0-8.33075-6.31217Q835.38475,281.50541,835.28461,281.522Z" transform="translate(-241.16498 -151.8354)" fill="#ffb6b6"/><path d="M686.987,357.394v0a13.003,13.003,0,0,0,13.19117,12.47146l40.58871-.62122L792.09278,345.44s16.738-14.20658,21.40459-14.54124,7.15173,4.00747,6.09419.04314-2.45668-6.61808,1.12983-6.248,3.016-6.94555,3.80908-9.71282-10.1158-12.75424-10.1158-12.75424-7.86172.15205-8.37639,1.185,1.27606,3.63592-2.94854,3.52446-7.451.06641-7.58291,2.028.17581,3.49064-2.16541,5.00983-12.90808,9.35128-12.90808,9.35128L696.82237,344.25A13.003,13.003,0,0,0,686.987,357.394Z" transform="translate(-241.16498 -151.8354)" fill="#df1463"/><polygon points="467.555 574.794 478.593 574.794 483.845 532.22 467.555 532.22 467.555 574.794" fill="#ffb6b6"/><path d="M705.11769,719.06984l17.634-1.05251v7.55515l16.76509,11.57858a4.71923,4.71923,0,0,1-2.68162,8.60272H715.84123l-3.61861-7.4732-1.41289,7.4732-7.91553,0Z" transform="translate(-241.16498 -151.8354)" fill="#2f2e41"/><polygon points="485.989 302.03 491.989 265.03 449.989 255.03 449.989 293.361 485.989 302.03" fill="#ffb6b6"/><path d="M674.65354,489.36546,695.18789,622.8422s-1.20765,58.01145,8.129,71.26736l2.33665,14.2559h21.067s-.38775-8.7559,1.77263-13.87795,5.16038-1.72835,2.16038-6.4252-3.32076-4.17716-2.16038-7.937,1.83774-174.23623,1.83774-174.23623Z" transform="translate(-241.16498 -151.8354)" fill="#2f2e41"/><polygon points="445.996 509.241 452.392 518.236 490.133 497.847 480.693 484.57 445.996 509.241" fill="#ffb6b6"/><path d="M691.2346,653.75948,702.31089,667.521l-6.15735,4.37805.27864,20.37288a4.71924,4.71924,0,0,1-8.56506,2.79961L675.7016,677.96182l3.99365-7.27969-6.9093,3.17908-4.58689-6.45106Z" transform="translate(-241.16498 -151.8354)" fill="#2f2e41"/><path d="M689.15354,422.86546l-.28608,15.48645s-37.95777,33.30964-9.33584,73.9116c0,0,3.60618,11.68926,8.61405,11.1456s7.558,2.25041,6.283,4.85338S741.815,562.53465,741.815,562.53465s-32.07323,70.71223-39.66142,86.33081l5,16s-2.64851,6.18895,1.42575,3.84447,2.06972-2.664,6.572-3.50422,10.05145-2.76938,9.77686-3.80481,55.98517-88.08124,55.98517-88.08124,13.48039-14.34,3.61031-31.14711c-1.37008-.30709-1.40609,0-1.40609,0l-48.24732-54.94271-5.71667-36.36438Z" transform="translate(-241.16498 -151.8354)" fill="#2f2e41"/><path d="M732.55866,323.59056,708.25494,312.2001l-7.2761,12.66061s-19.54183,27.88664-19.8253,48.00475,3.18465,26.10071,3.18465,26.10071-8.42569,6.29921-4.21284,10.14961,13.53954,5.51181,6.37619,7.1811-5.348,18.56858,2.652,21.56858,50.96418,2.97375,50.96418,2.97375a7.6514,7.6514,0,0,1,1.88976-7.53446c3.33071-3.33858,6.33071-.94289,3.33071-6.14074s-8-2.19784-4-9.19784,3.99854-9.09184,3.99854-9.09184,9.7424-16.80119-4.12807-32.35467-.11917-1.06581-.11917-1.06581l-9.918-33.23571Z" transform="translate(-241.16498 -151.8354)" fill="#df1463"/><path d="M831.01975,421.86546H796.28733a17.153,17.153,0,0,1-17.13379-17.13379V369.99925a17.153,17.153,0,0,1,17.13379-17.13379h34.73242a17.153,17.153,0,0,1,17.13379,17.13379v34.73242A17.153,17.153,0,0,1,831.01975,421.86546Z" transform="translate(-241.16498 -151.8354)" fill="#fdeef4"/><path d="M849.01975,289.86546H814.28733a17.153,17.153,0,0,1-17.13379-17.13379V237.99925a17.153,17.153,0,0,1,17.13379-17.13379h34.73242a17.153,17.153,0,0,1,17.13379,17.13379v34.73242A17.153,17.153,0,0,1,849.01975,289.86546Z" transform="translate(-241.16498 -151.8354)" fill="#fdeef4"/><path id="bbee2bee-8faa-4e0b-8a29-1ed5e19a1a55-313" data-name="Path 9" d="M755.0294,310.342l.02109-.00245a4.257,4.257,0,0,0,3.726-4.72869l-2.783-23.59317a31.748,31.748,0,0,0-3.93877-12.01171,32.26006,32.26006,0,0,0-18.82943-14.93554,31.76656,31.76656,0,0,0-12.68757-1.09336c-17.42662,2.02785-22.90658,6.92046-27.88193,35.22542s2.78719,23.62912,2.78719,23.62912a4.264,4.264,0,0,0,.53017,1.61579,4.33378,4.33378,0,0,0,2.53531,2.00508,4.27817,4.27817,0,0,0,1.6964.14569c21.28869.81123,42.81762,1.85347,54.828-6.25659Z" transform="translate(-241.16498 -151.8354)" fill="#2f2e41"/><path id="af2c28ec-c1d2-4535-bf5a-7c25bf61990b-314" data-name="Ellipse 1" d="M709.0951,279.34558A23.41773,23.41773,0,0,0,739.939,309.67385a23.145,23.145,0,0,0,12.51968-12.70766,23.41773,23.41773,0,0,0-30.82448-30.32168,23.14494,23.14494,0,0,0-12.539,12.70195Z" transform="translate(-241.16498 -151.8354)" fill="#ffb6b6"/><path id="ed097037-2d04-403a-be41-ce5d2710356f-315" data-name="Path 10" d="M763.703,283.0551a25.11443,25.11443,0,0,0-3.11534-9.49979c-1.87319-7.62778-5.5887-14.10467-14.88974-11.80893a25.12581,25.12581,0,0,0-9.96972-.86858l-4.72493.53333q-.07961.00892-.15916.01836a25.07215,25.07215,0,0,0-21.94535,27.85007l.05574.47256,9.99438-1.138,2.28366-9.918,1.80589,9.45423,5.16233-.58581,1.15123-5.00365.9116,4.76655c8.92216,5.00515,20.38011,2.91548,33.49086-3.79843Z" transform="translate(-241.16498 -151.8354)" fill="#2f2e41"/><path id="b879d9dd-b2ba-47e8-86a3-e5c83aca3b22-316" data-name="Path 13" d="M737.08594,311.70471a4.189,4.189,0,0,1,.094,2.3046,4.28426,4.28426,0,0,1-.434,1.11348,4.3338,4.3338,0,0,1-.60328.8241,4.24974,4.24974,0,0,1-2.62487,1.32034q-.09392.01019-.18825.01687t-.18917.009q-.09561.00329-.191.0012t-.192-.00758l-3.62156-.22618-6.11413-9.85722,1.12725,9.55651-16.46212-1.0006-4.78355-40.55378,27.03917-3.05787-.57655.85472a18.71581,18.71581,0,0,0-3.12952,9.6426,30.5085,30.5085,0,0,0,1.4103,10.28316,55.016,55.016,0,0,0,4.0647,9.7256,81.08449,81.08449,0,0,0,4.83882,7.98353A4.2783,4.2783,0,0,1,737.08594,311.70471Z" transform="translate(-241.16498 -151.8354)" fill="#2f2e41"/><path d="M800.73285,349.14347a7.74427,7.74427,0,0,0-4.43814,9.84769,7.42967,7.42967,0,0,0,.5307,1.10762L779.455,380.79187l7.39894,12.50846,20.73061-30.91962a7.72278,7.72278,0,0,0,2.85276-8.98643,7.39068,7.39068,0,0,0-9.51534-4.3247Q800.82689,349.10524,800.73285,349.14347Z" transform="translate(-241.16498 -151.8354)" fill="#ffb6b6"/><path d="M709.75812,344.99253l0,0a13.37257,13.37257,0,0,0-5.75187,19.40309l16.64732,25.96983,39,35s32-23,33-31-2-10,1-8,6,1,5,0-.60769-1.063.19616-2.53149,3.80384-8.46851,3.80384-8.46851l-10.626-10.5s-11.374,5.5-12.374,8.5,3,2-1,3-9.34337-3.53543-5.17168,1.23229,3.82831,6.83858,0,6.80315-10.82832,9.96456-10.82832,9.96456l-37.00443-45.61167A13.37257,13.37257,0,0,0,709.75812,344.99253Z" transform="translate(-241.16498 -151.8354)" fill="#df1463"/><path d="M828.917,721.87557a3.56386,3.56386,0,0,0,2.52393-6.20136c-.09328-.35631-.1602-.61214-.25341-.9685a9.57475,9.57475,0,0,1,17.74853-.33644c4.31772,9.84579,9.88142,20.028,7.26661,30.94266,17.594-38.22733,11.03667-85.50773-15.81028-117.80021-7.37364-3.97084-13.38731-11.09312-15.01445-19.41416,3.642,1.19547,8.14-1.80048,5.37412-5.59841-1.197-1.45022-2.40544-2.88878-3.60237-4.33907,13.65013-14.81754,30.30051,8.10753,15.31045,28.074a114.26429,114.26429,0,0,1,13.024,19.95055,48.04331,48.04331,0,0,1,2.65565-22.34155c2.68222-6.64886,7.77474-12.27553,12.25158-18.044,5.443-7.02861,16.81306-3.91815,17.6387,4.92755-5.06867,1.71965-5.65929,9.07055.16646,10.02036-1.36654,16.48349-11.98172,31.72082-26.73177,39.08465a114.70968,114.70968,0,0,1,6.72483,47.88518c2.43494-19.011,22.77131-23.8125,36.94436-31.49419a5.54912,5.54912,0,0,1,8.516,5.53977,32.05186,32.05186,0,0,0-5.58948,3.01718,4.84411,4.84411,0,0,0,2.33454,8.8211c-7.01111,17.83933-25.46154,29.94946-44.52854,30.06384a117.92872,117.92872,0,0,1-7.70134,23.201l-28.29843.26948c-.10449-.31345-.19885-.63723-.29316-.95078a32.15277,32.15277,0,0,0,7.82585-.5411c-7.00816-8.139-12.40748-12.27407-8.48327-23.76706Z" transform="translate(-241.16498 -151.8354)" fill="#fdeef4"/><path d="M241.165,746.9746a1.18647,1.18647,0,0,0,1.19006,1.19h715.29a1.19,1.19,0,0,0,0-2.38H242.355A1.18651,1.18651,0,0,0,241.165,746.9746Z" transform="translate(-241.16498 -151.8354)" fill="#fdeef4"/></svg>